<svg id="icon-sm-twitter" xmlns="http://www.w3.org/2000/svg" width="24" height="24" viewBox="0 0 24 24">
  <rect id="Rechteck_1355" data-name="Rechteck 1355" width="24" height="24" fill="none"/>
  <g id="Gruppe_126" data-name="Gruppe 126" transform="translate(5 7)">
    <path id="Pfad_182" data-name="Pfad 182" d="M38.6,35.327a5.526,5.526,0,0,1-1.591.436A2.777,2.777,0,0,0,38.23,34.23a5.544,5.544,0,0,1-1.759.672,2.772,2.772,0,0,0-4.72,2.527,7.862,7.862,0,0,1-5.709-2.894,2.773,2.773,0,0,0,.857,3.7,2.75,2.75,0,0,1-1.254-.347c0,.012,0,.024,0,.035a2.771,2.771,0,0,0,2.222,2.716,2.781,2.781,0,0,1-1.251.048A2.773,2.773,0,0,0,29.2,42.608a5.591,5.591,0,0,1-4.1,1.147,7.877,7.877,0,0,0,12.126-6.636q0-.18-.008-.358A5.616,5.616,0,0,0,38.6,35.327Z" transform="translate(-25.103 -34.028)"/>
  </g>
</svg>
