<svg width="448" height="448" viewBox="0 0 448 448" fill="none" xmlns="http://www.w3.org/2000/svg">
<path fill-rule="evenodd" clip-rule="evenodd" d="M223.9 0C283.2 0 339 23.1 380.9 65.1C422.8 107.1 448 162.8 448 222.1C448 344.5 346.2 444.1 223.9 444.1H223.8C186.6 444.1 150.1 434.8 117.7 417.1L0 448L31.5 333C12.1 299.3 1.9 261.1 1.9 222C1.9 99.6 101.5 0 223.9 0ZM239.29 318.531C267.382 329.82 280.15 330.641 296 328.3C306.7 326.7 328.8 314.9 333.4 301.9C338 288.9 338 277.8 336.6 275.5C335.513 273.409 332.747 272.088 328.655 270.132C327.853 269.749 327.001 269.342 326.1 268.9C320.723 266.163 294.512 253.295 288.576 251.038C288.44 250.986 288.314 250.94 288.2 250.9C283.1 249 279.4 248.1 275.7 253.7C272 259.3 261.4 271.7 258.1 275.5C255.183 278.873 252.182 279.587 247.507 277.565C247.054 277.369 246.586 277.147 246.1 276.9C213.5 260.6 192.1 247.8 170.6 210.9C167.435 205.458 169.542 203.254 173.857 198.74C177.313 195.125 182.186 190.028 186.9 180.6C188.7 176.9 187.8 173.7 186.4 170.9C185.414 168.927 179.611 154.79 174.66 142.727C172.585 137.671 170.659 132.979 169.3 129.7C166.735 123.545 164.138 121.385 161.749 120.628C160.455 120.219 159.222 120.221 158.088 120.223C157.643 120.224 157.212 120.224 156.8 120.2C153.6 120 149.9 120 146.2 120C142.5 120 136.5 121.4 131.4 126.9C131.064 127.268 130.689 127.671 130.281 128.108C124.48 134.323 112 147.696 112 173.2C112 199.791 130.88 225.529 134.356 230.266C134.448 230.393 134.53 230.504 134.6 230.6C134.793 230.855 135.144 231.357 135.649 232.079C142.487 241.854 177.532 291.958 229.4 314.4C232.9 315.911 236.188 317.285 239.29 318.531Z" fill="black"/>
</svg>
