<svg id="icon-skip-back-circle-filled" xmlns="http://www.w3.org/2000/svg" width="24" height="24" viewBox="0 0 24 24">
  <rect id="Rechteck_1995" data-name="Rechteck 1995" width="24" height="24" fill="none"/>
  <path id="Differenzmenge_15" data-name="Differenzmenge 15" d="M10,20A10,10,0,1,1,20,10,10.011,10.011,0,0,1,10,20ZM6.509,5.812a.7.7,0,0,0-.7.7v6.982a.7.7,0,1,0,1.4,0V6.511A.7.7,0,0,0,6.509,5.812Zm6.978.649a.707.707,0,0,0-.4.126L9.058,9.429A.693.693,0,0,0,8.764,10a.681.681,0,0,0,.294.563l4.028,2.849a.7.7,0,0,0,1.1-.572V7.16a.687.687,0,0,0-.215-.5A.717.717,0,0,0,13.487,6.462Z" transform="translate(2 2)"/>
</svg>
