<svg id="icon-sm-pinterest-circle" xmlns="http://www.w3.org/2000/svg" width="24" height="24" viewBox="0 0 24 24">
  <circle id="Ellipse_17" data-name="Ellipse 17" cx="12" cy="12" r="12"/>
  <g id="Gruppe_125" data-name="Gruppe 125" transform="translate(6.203 5.26)">
    <path id="Pfad_181" data-name="Pfad 181" d="M35.765,35.4a4.058,4.058,0,0,1-2-.952c-.391,2.052-.869,4.018-2.284,5.046-.437-3.1.641-5.43,1.142-7.9-.854-1.437.1-4.331,1.9-3.618,2.217.877-1.919,5.345.857,5.9,2.9.583,4.082-5.03,2.284-6.855-2.6-2.636-7.56-.06-6.95,3.713.149.922,1.1,1.2.381,2.475-1.662-.368-2.158-1.679-2.094-3.427a5.594,5.594,0,0,1,5.046-5.142c3.131-.35,6.069,1.15,6.474,4.094.456,3.324-1.413,6.923-4.761,6.664Z" transform="translate(-29 -24.593)" fill="#fff"/>
  </g>
</svg>
