<svg id="icon-location" xmlns="http://www.w3.org/2000/svg" width="24" height="24" viewBox="0 0 24 24">
  <g id="svg-43">
    <path id="a" d="M12,2A7,7,0,0,0,5,9c0,5.25,7,13,7,13s7-7.75,7-13A7,7,0,0,0,12,2Zm0,9.5A2.5,2.5,0,1,1,14.5,9,2.5,2.5,0,0,1,12,11.5Z"/>
    <path id="Pfad_285" data-name="Pfad 285" d="M12,2A7,7,0,0,0,5,9c0,5.25,7,13,7,13s7-7.75,7-13A7,7,0,0,0,12,2Zm0,9.5A2.5,2.5,0,1,1,14.5,9,2.5,2.5,0,0,1,12,11.5Z"/>
  </g>
  <path id="Pfad_323" data-name="Pfad 323" d="M0,0H24V24H0Z" fill="none"/>
</svg>
