<svg xmlns="http://www.w3.org/2000/svg" width="24" height="24" viewBox="0 0 24 24"><rect width="24" height="24" fill="none"/><path d="M60.216,19.455a3.677,3.677,0,0,1-.318-.185,4.471,4.471,0,0,1-.817-.694,3.852,3.852,0,0,1-.92-1.9h0A2.339,2.339,0,0,1,58.127,16H55.353V26.727c0,.144,0,.286-.006.427,0,.017,0,.034,0,.052a.116.116,0,0,1,0,.024v.006a2.356,2.356,0,0,1-1.185,1.87,2.315,2.315,0,0,1-1.148.3,2.356,2.356,0,0,1,0-4.711,2.318,2.318,0,0,1,.72.114l0-2.825a5.153,5.153,0,0,0-3.971,1.162,5.444,5.444,0,0,0-1.188,1.465,5.076,5.076,0,0,0-.612,2.33,5.5,5.5,0,0,0,.3,1.842v.007a5.422,5.422,0,0,0,.753,1.374,5.637,5.637,0,0,0,1.2,1.134v-.007l.007.007a5.191,5.191,0,0,0,2.832.853,5.013,5.013,0,0,0,2.1-.465A5.275,5.275,0,0,0,56.862,30.4a5.332,5.332,0,0,0,.93-1.546,5.79,5.79,0,0,0,.335-1.768V21.4c.034.02.482.317.482.317a6.416,6.416,0,0,0,1.653.683,9.521,9.521,0,0,0,1.7.232V19.879A3.6,3.6,0,0,1,60.216,19.455Z" transform="translate(-42.959 -12)"/></svg>