<svg id="icon-equalizer-circle-filled" xmlns="http://www.w3.org/2000/svg" width="24" height="24" viewBox="0 0 24 24">
  <g id="Gruppe_3654" data-name="Gruppe 3654">
    <rect id="Rechteck_716" data-name="Rechteck 716" width="24" height="24" fill="none"/>
  </g>
  <path id="Differenzmenge_31" data-name="Differenzmenge 31" d="M-17887,22490a10.015,10.015,0,0,1-10-10,10.013,10.013,0,0,1,10-10,10.01,10.01,0,0,1,10,10A10.011,10.011,0,0,1-17887,22490Zm0-16a.635.635,0,0,0-.666.6v10.8a.635.635,0,0,0,.666.6.635.635,0,0,0,.666-.6v-10.8A.635.635,0,0,0-17887,22474Zm2.664,2.4a.637.637,0,0,0-.666.6v6a.635.635,0,0,0,.666.6.635.635,0,0,0,.666-.6v-6A.637.637,0,0,0-17884.334,22476.4Zm-5.334,0a.637.637,0,0,0-.666.6v6a.635.635,0,0,0,.666.6.635.635,0,0,0,.666-.6v-6A.637.637,0,0,0-17889.668,22476.4Zm8,2.4a.638.638,0,0,0-.672.6v1.2a.64.64,0,0,0,.672.6.645.645,0,0,0,.666-.6v-1.2A.635.635,0,0,0-17881.664,22478.8Zm-10.668,0a.635.635,0,0,0-.666.6v1.2a.637.637,0,0,0,.666.6.637.637,0,0,0,.666-.6v-1.2A.635.635,0,0,0-17892.332,22478.8Z" transform="translate(17899 -22468)"/>
</svg>
