<svg id="icon-volume-off-circle-filled" xmlns="http://www.w3.org/2000/svg" width="24" height="24" viewBox="0 0 24 24">
  <rect id="Rechteck_1992" data-name="Rechteck 1992" width="24" height="24" fill="none"/>
  <path id="Differenzmenge_12" data-name="Differenzmenge 12" d="M10,20A10,10,0,1,1,20,10,10.011,10.011,0,0,1,10,20Zm3.627-5.327h0l.865.866a.645.645,0,1,0,.912-.912l-9.9-9.9a.642.642,0,0,0-.457-.189.658.658,0,0,0-.461.189.646.646,0,0,0,0,.912L6.955,8,6.767,8.2H4.828a.647.647,0,0,0-.647.646v2.587a.647.647,0,0,0,.647.646H6.767L8.895,14.2a.635.635,0,0,0,.451.19A.653.653,0,0,0,10,13.742v-2.7l2.7,2.7a4.421,4.421,0,0,1-1.035.589.642.642,0,0,0-.374.595.634.634,0,0,0,.644.638.668.668,0,0,0,.254-.051,5.828,5.828,0,0,0,1.435-.846ZM11.877,4.665a.6.6,0,0,0-.584.6v.122a.6.6,0,0,0,.394.55,4.515,4.515,0,0,1,2.573,5.715l.989.989A5.812,5.812,0,0,0,12.082,4.7.562.562,0,0,0,11.877,4.665Zm-.584,2.864V8.687l1.6,1.6a1.348,1.348,0,0,0,.013-.155A2.9,2.9,0,0,0,11.293,7.529ZM9.35,5.877a.641.641,0,0,0-.455.192l-.11.11L10,7.393V6.521a.631.631,0,0,0-.2-.468A.667.667,0,0,0,9.35,5.877Z" transform="translate(2 2)"/>
</svg>
