<svg id="icon-volume-mute-circle-filled" xmlns="http://www.w3.org/2000/svg" width="24" height="24" viewBox="0 0 24 24">
  <rect id="Rechteck_1991" data-name="Rechteck 1991" width="24" height="24" fill="none"/>
  <path id="Differenzmenge_11" data-name="Differenzmenge 11" d="M10,20A10,10,0,1,1,20,10,10.011,10.011,0,0,1,10,20ZM6.779,7.8A.779.779,0,0,0,6,8.578v3.116a.779.779,0,0,0,.779.778H9.115l2.563,2.563a.755.755,0,0,0,.544.229.778.778,0,0,0,.788-.782v-8.7A.787.787,0,0,0,12.223,5a.756.756,0,0,0-.544.229L9.115,7.8Z" transform="translate(2 2)"/>
</svg>
