<svg id="icon-skip-next-circle-filled" xmlns="http://www.w3.org/2000/svg" width="24" height="24" viewBox="0 0 24 24">
  <rect id="Rechteck_1994" data-name="Rechteck 1994" width="24" height="24" fill="none"/>
  <path id="Differenzmenge_14" data-name="Differenzmenge 14" d="M10,20A10,10,0,1,1,20,10,10.011,10.011,0,0,1,10,20ZM13.491,5.812a.7.7,0,0,0-.7.7v6.982a.7.7,0,1,0,1.4,0V6.511A.7.7,0,0,0,13.491,5.812Zm-6.978.649a.7.7,0,0,0-.7.7v5.683a.7.7,0,0,0,1.1.572l4.028-2.842A.7.7,0,0,0,11.236,10a.68.68,0,0,0-.294-.562L6.914,6.587A.707.707,0,0,0,6.513,6.461Z" transform="translate(2 2)"/>
</svg>
