<svg id="icon-image-collection-circle-filled" xmlns="http://www.w3.org/2000/svg" width="24" height="24" viewBox="0 0 24 24">
  <g id="Gruppe_1665" data-name="Gruppe 1665">
    <rect id="Rechteck_716" data-name="Rechteck 716" width="24" height="24" fill="none"/>
  </g>
  <path id="Differenzmenge_21" data-name="Differenzmenge 21" d="M-17413,22882a10.013,10.013,0,0,1-10-10,10.016,10.016,0,0,1,10-10,10.013,10.013,0,0,1,10,10A10.011,10.011,0,0,1-17413,22882Zm-4.5-12.967a.508.508,0,0,0-.506.512v6.609a1.016,1.016,0,0,0,1.016,1.016h6.611a.508.508,0,0,0,.51-.506.51.51,0,0,0-.51-.51h-6.1a.51.51,0,0,1-.512-.506v-6.1A.511.511,0,0,0-17417.494,22869.033Zm2.543-2.033a1.016,1.016,0,0,0-1.016,1.016v6.105a1.016,1.016,0,0,0,1.016,1.016h6.105a1.016,1.016,0,0,0,1.016-1.016v-6.105a1.016,1.016,0,0,0-1.016-1.016Zm5.576,7.121h-5.064a.247.247,0,0,1-.225-.143.251.251,0,0,1,.023-.266l1.016-1.355a.26.26,0,0,1,.207-.1.252.252,0,0,1,.2.1l.828,1.109,1.309-1.643a.259.259,0,0,1,.2-.1.242.242,0,0,1,.2.1l1.51,1.883a.251.251,0,0,1,.027.271A.249.249,0,0,1-17409.375,22874.121Z" transform="translate(17425 -22860)"/>
</svg>
