<svg xmlns="http://www.w3.org/2000/svg" width="24" height="24" viewBox="0 0 24 24"><path d="M21572.945,8982.3v-1.9a1.908,1.908,0,0,0-1.9-1.9h-5.691a1.9,1.9,0,0,0-1.9,1.9V8993.7a1.9,1.9,0,0,0,1.9,1.9h15.2a1.907,1.907,0,0,0,1.9-1.9v-9.5a1.907,1.907,0,0,0-1.9-1.9Zm-5.7,11.4h-1.893v-1.9h1.893Zm0-3.8h-1.893V8988h1.893Zm0-3.8h-1.893v-1.9h1.893Zm0-3.8h-1.893v-1.9h1.893Zm3.8,11.4h-1.9v-1.9h1.9Zm0-3.8h-1.9V8988h1.9Zm0-3.8h-1.9v-1.9h1.9Zm0-3.8h-1.9v-1.9h1.9Zm8.549,11.4h-6.646v-1.9h1.9v-1.9h-1.9V8988h1.9v-1.9h-1.9v-1.9h6.646a.96.96,0,0,1,.959.951v7.6A.955.955,0,0,1,21579.592,8993.7Zm-.943-7.6h-1.9v1.9h1.9Zm0,3.8h-1.9v1.9h1.9Z" transform="translate(-21560.449 -8975.5)"/><rect width="24" height="24" fill="none"/></svg>