<svg id="icon-heart-stroke" xmlns="http://www.w3.org/2000/svg" width="24" height="24" viewBox="0 0 24 24">
  <path id="Pfad_411" data-name="Pfad 411" d="M0,0H24V24H0Z" fill="none"/>
  <path id="Pfad_412" data-name="Pfad 412" d="M19.66,3.99A5.8,5.8,0,0,0,12,5.09a5.784,5.784,0,0,0-7.66-1.1A5.472,5.472,0,0,0,2,8.28c-.14,3.88,3.3,6.99,8.55,11.76l.1.09a2,2,0,0,0,2.69-.01l.11-.1C18.7,15.26,22.13,12.15,22,8.27a5.468,5.468,0,0,0-2.34-4.28ZM12.1,18.55l-.1.1-.1-.1C7.14,14.24,4,11.39,4,8.5A3.418,3.418,0,0,1,7.5,5a3.909,3.909,0,0,1,3.57,2.36h1.87A3.885,3.885,0,0,1,16.5,5,3.418,3.418,0,0,1,20,8.5C20,11.39,16.86,14.24,12.1,18.55Z"/>
</svg>
