<svg id="icon-sm-xing-circle" xmlns="http://www.w3.org/2000/svg" width="24.002" height="24.002" viewBox="0 0 24.002 24.002">
  <path id="Differenzmenge_26" data-name="Differenzmenge 26" d="M-17569,22788a11.914,11.914,0,0,1-8.486-3.518A11.914,11.914,0,0,1-17581,22776a12.015,12.015,0,0,1,12-12,12.012,12.012,0,0,1,12,12A12.015,12.015,0,0,1-17569,22788Zm3.094-18a.509.509,0,0,0-.463.332c-.014.027-.584,1.035-1.3,2.311-1.1,1.955-2.477,4.389-2.553,4.518.012.014,1.2,2.2,1.91,3.5.314.58.543,1,.549,1.012a.537.537,0,0,0,.486.33h1.727a.259.259,0,0,0,.23-.113.265.265,0,0,0-.006-.264l-2.437-4.461v-.012l3.832-6.777a.268.268,0,0,0,.006-.268.268.268,0,0,0-.234-.109Zm-7.275,2.375a.27.27,0,0,0-.234.1.268.268,0,0,0,.012.27l1.166,2.023a.007.007,0,0,1,0,.012l-1.836,3.242a.264.264,0,0,0,0,.264.24.24,0,0,0,.225.121h1.732a.542.542,0,0,0,.475-.332l1.865-3.307-1.186-2.076a.54.54,0,0,0-.48-.33h-1.732v.012Z" transform="translate(17581.002 -22764)"/>
</svg>
