<svg id="icon-hotel" xmlns="http://www.w3.org/2000/svg" width="24" height="24" viewBox="0 0 24 24">
  <path id="Pfad_739" data-name="Pfad 739" d="M0,0H24V24H0Z" fill="none"/>
  <path id="Pfad_740" data-name="Pfad 740" d="M6.455,12.273A2.727,2.727,0,1,0,3.727,9.545,2.724,2.724,0,0,0,6.455,12.273ZM17.364,6.818H11.909a1.824,1.824,0,0,0-1.818,1.818v4.545H2.818V5.909A.909.909,0,1,0,1,5.909V17.727a.909.909,0,0,0,1.818,0V15.909H19.182v1.818a.909.909,0,0,0,1.818,0V10.455A3.635,3.635,0,0,0,17.364,6.818Z" transform="translate(1)"/>
</svg>
