<svg id="icon-sm-youtube" xmlns="http://www.w3.org/2000/svg" width="24" height="24" viewBox="0 0 24 24">
  <rect id="Rechteck_1360" data-name="Rechteck 1360" width="24" height="24" fill="none"/>
  <g id="Logo" transform="translate(3 6)">
    <path id="The_Sharpness" d="M169.6,158.9l4.265,2.85.6-.307Z" transform="translate(-162.566 -155.249)" opacity="0.12"/>
    <g id="Lozenge">
      <g id="Gruppe_1889" data-name="Gruppe 1889">
        <path id="Pfad_404" data-name="Pfad 404" d="M82.02,106.93a3.884,3.884,0,0,0-.714-1.789,2.543,2.543,0,0,0-1.8-.761c-2.523-.18-6.3-.18-6.3-.18H73.2s-3.778,0-6.3.18a2.564,2.564,0,0,0-1.8.761,3.884,3.884,0,0,0-.714,1.789,27.175,27.175,0,0,0-.18,2.917v1.368a27.34,27.34,0,0,0,.18,2.917,3.884,3.884,0,0,0,.714,1.789,3.017,3.017,0,0,0,1.982.768c1.442.14,6.12.18,6.12.18s3.784-.007,6.307-.187a2.564,2.564,0,0,0,1.8-.761,3.884,3.884,0,0,0,.714-1.789,27.174,27.174,0,0,0,.18-2.917v-1.368A27.174,27.174,0,0,0,82.02,106.93Zm-10.685,5.933V107.8L76.2,110.34Z" transform="translate(-64.2 -104.2)"/>
      </g>
    </g>
  </g>
</svg>
