<svg id="icon-pending-circle-filled" xmlns="http://www.w3.org/2000/svg" width="24" height="24" viewBox="0 0 24 24">
  <g id="Gruppe_2321" data-name="Gruppe 2321">
    <rect id="Rechteck_770" data-name="Rechteck 770" width="24" height="24" fill="none"/>
    <rect id="Rechteck_771" data-name="Rechteck 771" width="24" height="24" fill="none"/>
  </g>
  <g id="Gruppe_2322" data-name="Gruppe 2322">
    <path id="Pfad_575" data-name="Pfad 575" d="M12,2A10,10,0,1,0,22,12,10,10,0,0,0,12,2ZM7,13.5A1.5,1.5,0,1,1,8.5,12,1.5,1.5,0,0,1,7,13.5Zm5,0A1.5,1.5,0,1,1,13.5,12,1.5,1.5,0,0,1,12,13.5Zm5,0A1.5,1.5,0,1,1,18.5,12,1.5,1.5,0,0,1,17,13.5Z"/>
  </g>
</svg>
