<svg id="icon-coronavirus" xmlns="http://www.w3.org/2000/svg" width="24" height="24" viewBox="0 0 24 24">
  <rect id="Rechteck_1363" data-name="Rechteck 1363" width="24" height="24" fill="none"/>
  <path id="Pfad_621" data-name="Pfad 621" d="M21.25,10.5a.755.755,0,0,0-.75.75H18.96A6.978,6.978,0,0,0,17.44,7.6l1.09-1.09.01.01A.75.75,0,1,0,19.6,5.46L18.54,4.4a.75.75,0,0,0-1.07,1.05L16.38,6.54a7.015,7.015,0,0,0-3.64-1.51V3.5h.01a.75.75,0,1,0,0-1.5h-1.5a.75.75,0,0,0-.01,1.5V5.05A6.934,6.934,0,0,0,7.6,6.56L6.51,5.47l.01-.01A.75.75,0,0,0,5.46,4.4L4.4,5.46A.75.75,0,0,0,5.45,6.53L6.54,7.62a6.889,6.889,0,0,0-1.5,3.63H3.5a.75.75,0,0,0-1.5,0v1.5a.75.75,0,0,0,1.5,0H5.04a7.053,7.053,0,0,0,1.5,3.63L5.45,17.47a.742.742,0,0,0-1.05.01.754.754,0,0,0,0,1.06L5.46,19.6a.75.75,0,0,0,1.06-1.06l-.01-.01L7.6,17.44a6.982,6.982,0,0,0,3.63,1.51V20.5a.75.75,0,0,0,.01,1.5h1.5a.75.75,0,1,0,0-1.5h-.01V18.96a6.933,6.933,0,0,0,3.64-1.51l1.09,1.09a.742.742,0,0,0,.01,1.05.754.754,0,0,0,1.06,0l1.06-1.06a.75.75,0,0,0-1.06-1.06l-.01.01-1.09-1.09a7.025,7.025,0,0,0,1.52-3.65h1.54a.75.75,0,1,0,1.5,0v-1.5A.738.738,0,0,0,21.25,10.5ZM13.75,8a1,1,0,1,1-1,1A1,1,0,0,1,13.75,8ZM12,13a1,1,0,1,1,1-1A1,1,0,0,1,12,13ZM10.25,8a1,1,0,1,1-1,1A1,1,0,0,1,10.25,8ZM8.5,13a1,1,0,1,1,1-1A1,1,0,0,1,8.5,13Zm1.75,3a1,1,0,1,1,1-1A1,1,0,0,1,10.25,16Zm3.5,0a1,1,0,1,1,1-1A1,1,0,0,1,13.75,16Zm.75-4a1,1,0,1,1,1,1A1,1,0,0,1,14.5,12Z"/>
</svg>
