<svg id="icon-sports" xmlns="http://www.w3.org/2000/svg" width="24" height="24" viewBox="0 0 24 24">
  <g id="Gruppe_3230" data-name="Gruppe 3230">
    <rect id="Rechteck_1368" data-name="Rechteck 1368" width="24" height="24" fill="none"/>
    <rect id="Rechteck_1369" data-name="Rechteck 1369" width="24" height="24" fill="none"/>
  </g>
  <g id="Gruppe_3234" data-name="Gruppe 3234">
    <g id="Gruppe_3233" data-name="Gruppe 3233">
      <g id="Gruppe_3231" data-name="Gruppe 3231">
        <path id="Pfad_634" data-name="Pfad 634" d="M21,6H11.23A6.4,6.4,0,0,0,6.87,7.73a2.507,2.507,0,1,0-1.76,3.19,4.889,4.889,0,0,0-.1.78,6,6,0,1,0,11.93-.56.989.989,0,0,1,.99-1.13h2.76C21.56,10,22,9.55,22,9V7A1,1,0,0,0,21,6ZM4.5,9A.5.5,0,1,1,5,8.5.5.5,0,0,1,4.5,9ZM11,15a3,3,0,1,1,3-3A3,3,0,0,1,11,15Z"/>
      </g>
      <g id="Gruppe_3232" data-name="Gruppe 3232">
        <circle id="Ellipse_145" data-name="Ellipse 145" cx="2" cy="2" r="2" transform="translate(9 10)"/>
      </g>
    </g>
  </g>
</svg>
