<svg id="icon-sm-xing" xmlns="http://www.w3.org/2000/svg" width="24" height="24" viewBox="0 0 24 24">
  <circle id="Ellipse_19" data-name="Ellipse 19" cx="12" cy="12" r="12"/>
  <path id="Pfad_183" data-name="Pfad 183" d="M302.264,256a.508.508,0,0,0-.464.33s-3.727,6.612-3.851,6.827c.007.012,2.459,4.512,2.459,4.512a.538.538,0,0,0,.483.33h1.727a.261.261,0,0,0,.232-.11.271.271,0,0,0,0-.267l-2.437-4.458a.011.011,0,0,1,0-.012l3.832-6.776a.271.271,0,0,0,0-.267.254.254,0,0,0-.23-.11Zm-7.27,2.37a.236.236,0,0,0-.227.373l1.17,2.025s0,.007,0,.009l-1.838,3.246a.261.261,0,0,0,0,.265.251.251,0,0,0,.225.117h1.73a.532.532,0,0,0,.473-.333l1.868-3.3-1.188-2.077a.536.536,0,0,0-.48-.33h-1.732Z" transform="translate(-287.17 -250)" fill="#fff"/>
</svg>
