<svg xmlns="http://www.w3.org/2000/svg" xmlns:xlink="http://www.w3.org/1999/xlink" width="29" height="29" viewBox="0 0 29 29">
  <defs>
    <filter id="Pfad_374" x="0" y="0" width="29" height="29" filterUnits="userSpaceOnUse">
      <feOffset dy="1" input="SourceAlpha"/>
      <feGaussianBlur stdDeviation="1.5" result="blur"/>
      <feFlood flood-opacity="0.239"/>
      <feComposite operator="in" in2="blur"/>
      <feComposite in="SourceGraphic"/>
    </filter>
  </defs>
  <g id="icon-play-circle-filled" transform="translate(2.5 1.5)">
    <g id="Gruppe_1665" data-name="Gruppe 1665">
      <rect id="Rechteck_716" data-name="Rechteck 716" width="24" height="24" fill="none"/>
    </g>
    <g id="Gruppe_1666" data-name="Gruppe 1666">
      <g transform="matrix(1, 0, 0, 1, -2.5, -1.5)" filter="url(#Pfad_374)">
        <path id="Pfad_374-2" data-name="Pfad 374" d="M12,2A10,10,0,1,0,22,12,10,10,0,0,0,12,2ZM9.5,14.67V9.33a1,1,0,0,1,1.54-.84l4.15,2.67a1,1,0,0,1,0,1.68l-4.15,2.67A1,1,0,0,1,9.5,14.67Z" transform="translate(2.5 1.5)"/>
      </g>
    </g>
  </g>
</svg>
