<svg id="icon-sm-linkedin-circle" xmlns="http://www.w3.org/2000/svg" width="24.002" height="24.002" viewBox="0 0 24.002 24.002">
  <path id="Differenzmenge_27" data-name="Differenzmenge 27" d="M-17727,22788a11.914,11.914,0,0,1-8.486-3.518A11.914,11.914,0,0,1-17739,22776a12.015,12.015,0,0,1,12-12,12.012,12.012,0,0,1,12,12A12.015,12.015,0,0,1-17727,22788Zm2.527-13.273c.561,0,1.23.291,1.23,1.676v4.082h2.246v-4.248c0-1.6-.432-3.5-2.492-3.5a3.383,3.383,0,0,0-2.758,1.275v-1.041h-2.252v7.514h2.252v-4.064A1.781,1.781,0,0,1-17724.471,22774.729Zm-7.766-1.734v7.492h2.246V22773h-2.246Zm1.109-3a1.125,1.125,0,0,0-1.121,1.127,1.125,1.125,0,0,0,1.121,1.127,1.129,1.129,0,0,0,1.127-1.127A1.129,1.129,0,0,0-17731.127,22770Z" transform="translate(17739.002 -22764)"/>
</svg>
