<svg id="icon-link" xmlns="http://www.w3.org/2000/svg" width="24" height="24" viewBox="0 0 24 24">
  <g id="Gruppe_3246" data-name="Gruppe 3246">
    <rect id="Rechteck_1379" data-name="Rechteck 1379" width="24" height="24" fill="none"/>
  </g>
  <g id="Gruppe_3248" data-name="Gruppe 3248">
    <g id="Gruppe_3247" data-name="Gruppe 3247">
      <path id="Pfad_751" data-name="Pfad 751" d="M17,7H14a1,1,0,0,0,0,2h3a3,3,0,0,1,0,6H14a1,1,0,0,0,0,2h3A5,5,0,0,0,17,7ZM8,12a1,1,0,0,0,1,1h6a1,1,0,0,0,0-2H9A1,1,0,0,0,8,12Zm2,3H7A3,3,0,0,1,7,9h3a1,1,0,0,0,0-2H7A5,5,0,0,0,7,17h3a1,1,0,0,0,0-2Z"/>
    </g>
  </g>
</svg>
