<svg id="icon-sm-pinterest" xmlns="http://www.w3.org/2000/svg" width="24" height="24" viewBox="0 0 24 24">
  <rect id="Rechteck_1359" data-name="Rechteck 1359" width="24" height="24" fill="none"/>
  <g id="Gruppe_125" data-name="Gruppe 125" transform="translate(6 3.999)">
    <path id="Pfad_181" data-name="Pfad 181" d="M36,35.78a4.2,4.2,0,0,1-2.07-.985c-.4,2.123-.9,4.159-2.364,5.222-.453-3.209.664-5.62,1.182-8.179-.884-1.488.106-4.483,1.97-3.745,2.294.907-1.986,5.532.887,6.11,3,.6,4.225-5.206,2.364-7.1-2.688-2.728-7.825-.062-7.193,3.843.154.955,1.14,1.245.394,2.562-1.721-.381-2.234-1.738-2.168-3.547a5.79,5.79,0,0,1,5.223-5.322c3.24-.363,6.281,1.19,6.7,4.238.472,3.44-1.463,7.165-4.927,6.9Z" transform="translate(-29 -24.593)"/>
  </g>
</svg>
