<svg id="icon-sm-twitter-circle" xmlns="http://www.w3.org/2000/svg" width="23.998" height="24.002" viewBox="0 0 23.998 24.002">
  <path id="Differenzmenge_24" data-name="Differenzmenge 24" d="M-17253,22788a11.91,11.91,0,0,1-8.484-3.518A11.909,11.909,0,0,1-17265,22776a11.91,11.91,0,0,1,3.516-8.482A11.915,11.915,0,0,1-17253,22764a12.012,12.012,0,0,1,12,12,11.915,11.915,0,0,1-3.514,8.486A11.917,11.917,0,0,1-17253,22788Zm-5.289-8.24h0a6.558,6.558,0,0,0,3.549,1.041,6.328,6.328,0,0,0,4.9-2.15,6.824,6.824,0,0,0,1.7-4.445c0-.084,0-.18-.01-.3a4.58,4.58,0,0,0,1.16-1.2,4.77,4.77,0,0,1-1.332.367,2.308,2.308,0,0,0,1.018-1.281,4.643,4.643,0,0,1-1.471.561,2.288,2.288,0,0,0-1.691-.732,2.321,2.321,0,0,0-2.322,2.316,2.341,2.341,0,0,0,.063.531,6.608,6.608,0,0,1-4.781-2.424,2.325,2.325,0,0,0-.314,1.166,2.3,2.3,0,0,0,1.035,1.928,2.311,2.311,0,0,1-1.053-.287v.029a2.328,2.328,0,0,0,1.859,2.273,2.253,2.253,0,0,1-.611.082,2.111,2.111,0,0,1-.436-.045,2.318,2.318,0,0,0,2.168,1.613,4.626,4.626,0,0,1-2.883.994A4.33,4.33,0,0,1-17258.287,22779.762Z" transform="translate(17264.998 -22764)"/>
</svg>
