<svg xmlns="http://www.w3.org/2000/svg" width="24.002" height="24.002" viewBox="0 0 24.002 24.002"><path d="M-16957,24042a11.915,11.915,0,0,1-8.486-3.514A11.92,11.92,0,0,1-16969,24030a11.915,11.915,0,0,1,3.514-8.486A11.915,11.915,0,0,1-16957,24018a11.915,11.915,0,0,1,8.486,3.514A11.909,11.909,0,0,1-16945,24030a11.91,11.91,0,0,1-3.516,8.488A11.915,11.915,0,0,1-16957,24042Zm-3.939-6.043.006,0a4.788,4.788,0,0,0,2.527.777h.055l.041,0a4.5,4.5,0,0,0,1.879-.42,4.8,4.8,0,0,0,1.557-1.17,4.836,4.836,0,0,0,.85-1.412,5.2,5.2,0,0,0,.3-1.611v-5.2c.027.012.248.158.367.236.045.029.078.051.078.053a5.893,5.893,0,0,0,1.5.621,8.665,8.665,0,0,0,1.527.213h.023v-2.512a1.143,1.143,0,0,1-.121.006,3.588,3.588,0,0,1-1.473-.4,3.114,3.114,0,0,1-.289-.164,4.367,4.367,0,0,1-.742-.633,3.491,3.491,0,0,1-.84-1.738,2.38,2.38,0,0,1-.033-.615h-2.531v9.793c0,.127,0,.26-.006.387v.047a.05.05,0,0,1-.006.025l0,.006a2.127,2.127,0,0,1-1.078,1.7,2.132,2.132,0,0,1-1.049.277,2.144,2.144,0,0,1-2.131-2.148,2.142,2.142,0,0,1,2.131-2.146,2.119,2.119,0,0,1,.662.1v-2.576a4.886,4.886,0,0,0-.609-.039,4.7,4.7,0,0,0-3.016,1.1,4.84,4.84,0,0,0-1.08,1.338,4.545,4.545,0,0,0-.561,2.125,4.942,4.942,0,0,0,.271,1.684l0,.006a4.938,4.938,0,0,0,.689,1.254,5.122,5.122,0,0,0,1.1,1.033v0Z" transform="translate(16969 -24018)"/></svg>