<svg id="icon-campaign" xmlns="http://www.w3.org/2000/svg" width="24" height="24" viewBox="0 0 24 24">
  <g id="Gruppe_3229" data-name="Gruppe 3229">
    <rect id="Rechteck_1362" data-name="Rechteck 1362" width="24" height="24" fill="none"/>
  </g>
  <path id="Pfad_616" data-name="Pfad 616" d="M18,12h0a1,1,0,0,0,1,1h2a1,1,0,0,0,1-1h0a1,1,0,0,0-1-1H19A1,1,0,0,0,18,12Z"/>
  <path id="Pfad_617" data-name="Pfad 617" d="M16.59,16.82a.966.966,0,0,0,.2,1.37c.53.39,1.09.81,1.62,1.21a.978.978,0,0,0,1.38-.2c0-.01.01-.01.01-.02a.978.978,0,0,0-.2-1.38c-.53-.4-1.09-.82-1.61-1.21a.993.993,0,0,0-1.39.21A.035.035,0,0,1,16.59,16.82Z"/>
  <path id="Pfad_618" data-name="Pfad 618" d="M19.81,4.81c0-.01-.01-.01-.01-.02a.98.98,0,0,0-1.38-.2c-.53.4-1.1.82-1.62,1.22a.979.979,0,0,0-.19,1.38c0,.01.01.01.01.02a.979.979,0,0,0,1.38.2c.53-.39,1.09-.82,1.62-1.22A.994.994,0,0,0,19.81,4.81Z"/>
  <path id="Pfad_619" data-name="Pfad 619" d="M8,9H4a2.006,2.006,0,0,0-2,2v2a2.006,2.006,0,0,0,2,2H5v3a1,1,0,0,0,1,1H6a1,1,0,0,0,1-1V15H8l5,3V6Z"/>
  <path id="Pfad_620" data-name="Pfad 620" d="M15.5,12A4.48,4.48,0,0,0,14,8.65v6.69A4.442,4.442,0,0,0,15.5,12Z"/>
</svg>
