<svg id="icon-shopping-cart" xmlns="http://www.w3.org/2000/svg" width="24" height="24" viewBox="0 0 24 24">
  <path id="Pfad_632" data-name="Pfad 632" d="M0,0H24V24H0Z" fill="none"/>
  <path id="Pfad_633" data-name="Pfad 633" d="M7,18a2,2,0,1,0,2,2A2,2,0,0,0,7,18ZM1,3A1,1,0,0,0,2,4H3l3.6,7.59L5.25,14.03A2,2,0,0,0,7,17H18a1,1,0,0,0,0-2H7l1.1-2h7.45a1.991,1.991,0,0,0,1.75-1.03l3.58-6.49A1,1,0,0,0,20.01,4H5.21L4.54,2.57A.993.993,0,0,0,3.64,2H2A1,1,0,0,0,1,3ZM17,18a2,2,0,1,0,2,2A2,2,0,0,0,17,18Z"/>
</svg>
