<svg xmlns="http://www.w3.org/2000/svg" width="24" height="24" viewBox="0 0 24 24"><rect width="24" height="24" fill="none"/><path d="M0,0H24V24H0Z" fill="none" opacity="0.87"/><g transform="translate(-770 -1156)"><g transform="translate(772 1158)" fill="none" stroke="#000" stroke-width="2"><circle cx="10" cy="10" r="10" stroke="none"/><circle cx="10" cy="10" r="9" fill="none"/></g><path d="M15.593,15.593a1,1,0,0,1-1.41,0L12,13.41,9.817,15.593a1,1,0,1,1-1.41-1.41L10.59,12,8.407,9.817a1,1,0,0,1,1.41-1.41L12,10.59l2.183-2.183a1,1,0,1,1,1.41,1.41L13.41,12l2.183,2.183a1.014,1.014,0,0,1,0,1.41Z" transform="translate(782 1151.029) rotate(45)"/></g></svg>