<svg id="icon-calendar-check" xmlns="http://www.w3.org/2000/svg" width="24" height="24" viewBox="0 0 24 24">
  <path id="Pfad_610" data-name="Pfad 610" d="M0,0H24V24H0Z" fill="none"/>
  <path id="Pfad_611" data-name="Pfad 611" d="M16,10.53a.754.754,0,0,0-1.06,0l-4.35,4.35L9,13.29a.75.75,0,0,0-1.06,1.06l1.94,1.94a1,1,0,0,0,1.41,0l4.7-4.7A.746.746,0,0,0,16,10.53ZM19,3H18V2a1,1,0,0,0-2,0V3H8V2A1,1,0,0,0,6,2V3H5A1.991,1.991,0,0,0,3.01,5L3,19a2,2,0,0,0,2,2H19a2.006,2.006,0,0,0,2-2V5A2.006,2.006,0,0,0,19,3ZM18,19H6a1,1,0,0,1-1-1V8H19V18A1,1,0,0,1,18,19Z"/>
</svg>
