<svg id="icon-play-circle-filled" xmlns="http://www.w3.org/2000/svg" width="24" height="24" viewBox="0 0 24 24">
  <g id="Gruppe_1665" data-name="Gruppe 1665">
    <rect id="Rechteck_716" data-name="Rechteck 716" width="24" height="24" fill="none"/>
  </g>
  <path id="Differenzmenge_7" data-name="Differenzmenge 7" d="M10,20A10,10,0,1,1,20,10,10.011,10.011,0,0,1,10,20ZM7.927,5.815a.678.678,0,0,0-.676.678v7.013a.674.674,0,0,0,1.042.569l5.51-3.506A.669.669,0,0,0,14.118,10a.681.681,0,0,0-.315-.579l-5.51-3.5A.678.678,0,0,0,7.927,5.815Z" transform="translate(2 2)"/>
</svg>
