<svg id="icon-sm-youtube-circle" xmlns="http://www.w3.org/2000/svg" width="24.002" height="24.002" viewBox="0 0 24.002 24.002">
  <path id="Differenzmenge_29" data-name="Differenzmenge 29" d="M-18043,22788a11.928,11.928,0,0,1-8.49-3.514,11.928,11.928,0,0,1-3.514-8.49,11.914,11.914,0,0,1,3.514-8.484,11.928,11.928,0,0,1,8.49-3.514,11.914,11.914,0,0,1,8.484,3.514A11.914,11.914,0,0,1-18031,22776a11.928,11.928,0,0,1-3.514,8.49A11.914,11.914,0,0,1-18043,22788Zm-.062-17.752c-.033,0-3.422,0-5.662.166l-.1.01a2.224,2.224,0,0,0-1.527.67,3.533,3.533,0,0,0-.641,1.611s0,.016,0,.039a24.61,24.61,0,0,0-.156,2.582v1.23a24.758,24.758,0,0,0,.156,2.582c0,.023,0,.035,0,.037a3.53,3.53,0,0,0,.641,1.613,2.369,2.369,0,0,0,1.574.658c.086.01.154.018.211.029.738.07,2.645.129,5.365.164h.238c2.285-.016,4.262-.076,5.566-.172l.049,0,.041-.006a2.214,2.214,0,0,0,1.533-.67,3.472,3.472,0,0,0,.641-1.611s0-.016,0-.039a24.61,24.61,0,0,0,.156-2.582v-1.23a24.61,24.61,0,0,0-.156-2.582c0-.023,0-.035,0-.037a3.47,3.47,0,0,0-.641-1.613,2.184,2.184,0,0,0-1.521-.668l-.1-.012c-2.24-.166-5.629-.166-5.662-.166Zm-1.676,7.789v-4.547l4.375,2.277-4.373,2.268Z" transform="translate(18055.002 -22764)"/>
</svg>
