<svg id="icon-question" xmlns="http://www.w3.org/2000/svg" width="24" height="24" viewBox="0 0 24 24">
  <path id="Pfad_622" data-name="Pfad 622" d="M0,0H24V24H0Z" fill="none"/>
  <path id="Pfad_623" data-name="Pfad 623" d="M11.5,2a8.5,8.5,0,0,0,0,17H12v3c4.86-2.34,8-7,8-11.5A8.506,8.506,0,0,0,11.5,2Zm1,14.5h-2v-2h2Zm.4-4.78a.219.219,0,0,0-.03.05c-.05.08-.1.16-.14.24a.358.358,0,0,0-.04.11,1.8,1.8,0,0,0-.08.21,2.109,2.109,0,0,0-.1.68H10.5a4.082,4.082,0,0,1,.2-1.3.037.037,0,0,1,.01-.03c.01-.04.04-.06.05-.1a2.261,2.261,0,0,1,.22-.44c.03-.05.07-.1.1-.15a1.249,1.249,0,0,1,.08-.12l.01.01c.84-1.1,2.21-1.44,2.32-2.68a2.03,2.03,0,0,0-1.57-2.13,2,2,0,0,0-2.3,1.28A.971.971,0,0,1,8.74,8h-.2a.916.916,0,0,1-.87-1.17A4,4,0,0,1,12.1,4.04a4.058,4.058,0,0,1,3.33,3.33c.44,2.44-1.63,3.03-2.53,4.35Z"/>
</svg>
