<svg id="icon-volume-down-circle-filled" xmlns="http://www.w3.org/2000/svg" width="24" height="24" viewBox="0 0 24 24">
  <rect id="Rechteck_1990" data-name="Rechteck 1990" width="24" height="24" fill="none"/>
  <path id="Differenzmenge_10" data-name="Differenzmenge 10" d="M10,20A10,10,0,1,1,20,10,10.011,10.011,0,0,1,10,20ZM5.525,7.669a.78.78,0,0,0-.779.779v3.115a.78.78,0,0,0,.779.779H7.861L10.422,14.9a.755.755,0,0,0,.544.229.786.786,0,0,0,.787-.781v-8.7a.787.787,0,0,0-.788-.782.755.755,0,0,0-.543.229L7.861,7.669Zm7.785-.8v6.268a3.5,3.5,0,0,0,0-6.268Z" transform="translate(2 2)"/>
</svg>
