<svg id="icon-sm-xing" xmlns="http://www.w3.org/2000/svg" width="24" height="24" viewBox="0 0 24 24">
  <rect id="Rechteck_1357" data-name="Rechteck 1357" width="24" height="24" fill="none"/>
  <path id="Pfad_183" data-name="Pfad 183" d="M302.947,256a.55.55,0,0,0-.5.358s-4.037,7.163-4.172,7.4c.008.013,2.663,4.888,2.663,4.888a.582.582,0,0,0,.523.358h1.871a.283.283,0,0,0,.251-.119.294.294,0,0,0-.005-.289l-2.641-4.829a.011.011,0,0,1,0-.013l4.151-7.34a.294.294,0,0,0,0-.289.276.276,0,0,0-.249-.119Zm-7.876,2.567a.256.256,0,0,0-.246.4l1.267,2.194c0,.005,0,.008,0,.01l-1.991,3.517a.283.283,0,0,0,0,.287.271.271,0,0,0,.244.127h1.874a.577.577,0,0,0,.513-.361l2.024-3.58-1.287-2.25a.58.58,0,0,0-.521-.358h-1.876Z" transform="translate(-287.063 -251)"/>
</svg>
