<svg id="icon-home-smooth" xmlns="http://www.w3.org/2000/svg" width="24" height="24" viewBox="0 0 24 24">
  <g id="Gruppe_1795" data-name="Gruppe 1795">
    <path id="Pfad_377" data-name="Pfad 377" d="M0,0H24V24H0Z" fill="none"/>
  </g>
  <g id="Gruppe_1797" data-name="Gruppe 1797" transform="translate(3 -2.455)">
    <g id="Gruppe_1796" data-name="Gruppe 1796" transform="translate(1 6.455)">
      <path id="Pfad_378" data-name="Pfad 378" d="M16.381,11.066,10.537,6.893a2.316,2.316,0,0,0-2.712,0L1.982,11.066A2.333,2.333,0,0,0,1,12.971v9.315a1.172,1.172,0,0,0,1.169,1.169H6.844V16.442h4.675v7.013h4.675a1.172,1.172,0,0,0,1.169-1.169V12.971A2.333,2.333,0,0,0,16.381,11.066Z" transform="translate(-1 -6.455)"/>
    </g>
  </g>
</svg>
