<svg id="icon-file-download" xmlns="http://www.w3.org/2000/svg" width="24" height="24" viewBox="0 0 24 24">
  <g id="Gruppe_3222" data-name="Gruppe 3222">
    <rect id="Rechteck_1353" data-name="Rechteck 1353" width="24" height="24" fill="none"/>
  </g>
  <g id="Gruppe_3223" data-name="Gruppe 3223">
    <path id="Pfad_598" data-name="Pfad 598" d="M16.59,9H15V4a1,1,0,0,0-1-1H10A1,1,0,0,0,9,4V9H7.41a1,1,0,0,0-.71,1.71l4.59,4.59a1,1,0,0,0,1.41,0l4.59-4.59A1,1,0,0,0,16.59,9ZM5,19a1,1,0,0,0,1,1H18a1,1,0,0,0,0-2H6A1,1,0,0,0,5,19Z"/>
  </g>
</svg>
