<svg id="icon-sm-pinterest-circle" xmlns="http://www.w3.org/2000/svg" width="24.002" height="24.002" viewBox="0 0 24.002 24.002">
  <path id="Differenzmenge_28" data-name="Differenzmenge 28" d="M-17885,22788a11.914,11.914,0,0,1-8.486-3.518A11.914,11.914,0,0,1-17897,22776a12.015,12.015,0,0,1,12-12,12.012,12.012,0,0,1,12,12A12.015,12.015,0,0,1-17885,22788Zm-.814-15.471a1.5,1.5,0,0,0-1.281.867,3.071,3.071,0,0,0-.078,2.863c-.131.648-.307,1.3-.477,1.934l0,.008a14.1,14.1,0,0,0-.664,5.961c1.418-1.033,1.906-3.061,2.281-5.049.145.088.273.176.4.262l.088.061a2.808,2.808,0,0,0,1.516.633q.167.012.334.012a3.937,3.937,0,0,0,3.031-1.414,6.777,6.777,0,0,0,1.393-5.262,4.4,4.4,0,0,0-1.881-3.07,6.457,6.457,0,0,0-3.693-1.074,7.877,7.877,0,0,0-.9.051,6.027,6.027,0,0,0-3.41,1.6,5.083,5.083,0,0,0-1.633,3.543c-.07,1.975.613,3.094,2.092,3.426a1.382,1.382,0,0,0-.039-1.686,2.171,2.171,0,0,1-.338-.791,3.868,3.868,0,0,1,.908-3.172,4.639,4.639,0,0,1,3.438-1.617,3.578,3.578,0,0,1,2.6,1.078c1.074,1.092,1.035,3.443.385,5a2.62,2.62,0,0,1-2.258,1.9,2.113,2.113,0,0,1-.414-.043,1.173,1.173,0,0,1-.844-.518c-.344-.582-.039-1.543.258-2.473l0-.008c.389-1.221.789-2.482-.27-2.9A1.474,1.474,0,0,0-17885.812,22772.531Z" transform="translate(17897.002 -22764)"/>
</svg>
