<svg xmlns="http://www.w3.org/2000/svg" width="24" height="24" viewBox="0 0 24 24"><rect width="24" height="24" fill="none"/><rect width="24" height="24" fill="none"/><path d="M19,9H18V6a2.006,2.006,0,0,0-2-2H10A2.006,2.006,0,0,0,8,6V20H20a2.006,2.006,0,0,0,2-2V12A3,3,0,0,0,19,9ZM10,6h6V9H10Zm4,11H10V12h4Zm2,0a1,1,0,1,1,1-1A1,1,0,0,1,16,17Zm0-3a1,1,0,1,1,1-1A1,1,0,0,1,16,14Zm3,3a1,1,0,1,1,1-1A1,1,0,0,1,19,17Zm0-3a1,1,0,1,1,1-1A1,1,0,0,1,19,14Z"/><path d="M4.5,8A2.5,2.5,0,0,0,2,10.5v8a2.5,2.5,0,0,0,5,0v-8A2.5,2.5,0,0,0,4.5,8Z"/></svg>