<svg id="icon-backward-circle-filled" xmlns="http://www.w3.org/2000/svg" width="24" height="24" viewBox="0 0 24 24">
  <rect id="Rechteck_1989" data-name="Rechteck 1989" width="24" height="24" fill="none"/>
  <path id="Differenzmenge_9" data-name="Differenzmenge 9" d="M10,20A10,10,0,1,1,20,10,10.011,10.011,0,0,1,10,20ZM14.922,6.487a.7.7,0,0,0-.4.126l-4,2.82a.689.689,0,0,0-.291.571.677.677,0,0,0,.291.559l4,2.827a.7.7,0,0,0,1.1-.569V7.181a.682.682,0,0,0-.213-.5A.711.711,0,0,0,14.922,6.487Zm-6.235,0a.7.7,0,0,0-.4.126l-4,2.82A.689.689,0,0,0,4,10a.677.677,0,0,0,.291.559l4,2.82a.691.691,0,0,0,1.094-.562V7.181a.682.682,0,0,0-.213-.5A.71.71,0,0,0,8.687,6.487Z" transform="translate(2 2)"/>
</svg>
