<?xml version="1.0" encoding="UTF-8"?><svg id="a" xmlns="http://www.w3.org/2000/svg" viewBox="0 0 135.65 26.67"><defs><style>.b{fill:#394149;}</style></defs><path class="b" d="M20.35,11.7c-.77,.77-1.15,1.85-1.05,2.93l-.02-.02c.2,2.39-1.57,4.49-3.96,4.69-.24,.02-.49,.02-.73,0l.02,.02c-2.02-.19-3.81,1.3-4,3.32-.19,2.02,1.3,3.81,3.32,4,2.02,.19,3.81-1.3,4-3.32,.02-.23,.02-.46,0-.69l.02,.02c-.2-2.39,1.57-4.49,3.96-4.69,.24-.02,.49-.02,.73,0l-.02-.02c2.02,.18,3.8-1.31,3.99-3.33,.18-2.02-1.31-3.8-3.33-3.99-1.09-.1-2.16,.29-2.93,1.07h0Z"/><path class="b" d="M12.97,16.97l-.02-.02c2,.2,3.78-1.25,3.98-3.25,.02-.24,.02-.48,0-.73l.02,.02c-.2-2.39,1.57-4.49,3.96-4.69,.24-.02,.49-.02,.73,0l-.02-.02c2.02,.19,3.82-1.3,4.01-3.32s-1.3-3.82-3.32-4.01-3.82,1.3-4.01,3.32c-.02,.23-.02,.46,0,.69l-.02-.02c.2,2.39-1.57,4.49-3.96,4.69-.24,.02-.49,.02-.73,0l.02,.02c-2-.2-3.78,1.25-3.98,3.25-.02,.24-.02,.48,0,.73l-.02-.02c.2,2.39-1.57,4.49-3.97,4.69-.24,.02-.49,.02-.73,0l.02,.02c-2.02-.19-3.82,1.3-4.01,3.32s1.3,3.82,3.32,4.01,3.82-1.3,4.01-3.32c.02-.23,.02-.46,0-.69l.02,.02c-.2-2.39,1.57-4.49,3.96-4.69,.24-.02,.49-.02,.73,0Z"/><path class="b" d="M6.27,14.96c.77-.77,1.15-1.85,1.05-2.93l.02,.02c-.2-2.39,1.57-4.49,3.96-4.69,.24-.02,.49-.02,.73,0l-.02-.02c2.02,.19,3.81-1.3,4-3.32C16.2,2,14.72,.21,12.7,.02c-2.02-.19-3.81,1.3-4,3.32-.02,.23-.02,.46,0,.69l-.02-.02c.2,2.39-1.57,4.49-3.96,4.69-.24,.02-.49,.02-.73,0l.02,.02C1.98,8.53,.2,10.02,.01,12.04c-.18,2.02,1.31,3.8,3.33,3.98,1.09,.1,2.16-.29,2.93-1.07h0Z"/><path class="b" d="M37.25,4.99h2.97v14.45h-2.97V4.99Z"/><path class="b" d="M41.9,14.49c-.01-2.9,2.33-5.26,5.23-5.27s5.26,2.33,5.27,5.23-2.33,5.26-5.23,5.27h-.02c-2.87,.03-5.21-2.26-5.25-5.13,0-.03,0-.06,0-.1Zm7.52,0c-.03-1.26-1.08-2.25-2.34-2.21-1.26,.03-2.25,1.08-2.21,2.34,.03,1.23,1.04,2.22,2.28,2.22,1.23,.03,2.25-.93,2.28-2.16,0-.06,0-.12,0-.18Z"/><path class="b" d="M64.23,9.54v9.4c0,3.33-2.59,4.73-5.23,4.73-1.89,.14-3.7-.78-4.69-2.4l2.53-1.47c.42,.85,1.32,1.34,2.26,1.25,1.08,.15,2.08-.6,2.23-1.68,.02-.14,.02-.29,.01-.43v-.9c-.71,.86-1.78,1.34-2.89,1.29-2.78-.09-4.96-2.41-4.87-5.19,.08-2.65,2.22-4.79,4.87-4.87,1.11-.05,2.19,.42,2.89,1.29v-1.01h2.89Zm-2.89,4.75c.06-1.32-.97-2.44-2.3-2.5-1.32-.06-2.44,.97-2.5,2.3-.06,1.32,.97,2.44,2.3,2.5,.03,0,.07,0,.1,0,1.23,.09,2.3-.84,2.39-2.08,0-.07,0-.15,0-.22Z"/><path class="b" d="M65.91,14.49c-.01-2.9,2.33-5.26,5.23-5.27s5.26,2.33,5.27,5.23-2.33,5.26-5.23,5.27h-.02c-2.87,.03-5.21-2.26-5.25-5.13,0-.03,0-.06,0-.1Zm7.52,0c-.03-1.26-1.08-2.25-2.34-2.21-1.26,.03-2.25,1.08-2.21,2.34,.03,1.23,1.04,2.22,2.28,2.22,1.23,.03,2.25-.93,2.28-2.16,0-.06,0-.12,0-.18Z"/><path class="b" d="M77.79,6.89c0-.98,.8-1.78,1.78-1.78s1.78,.8,1.78,1.78c0,.98-.8,1.78-1.78,1.78h0c-.98,0-1.77-.8-1.78-1.78Zm.3,2.65h2.97v9.9h-2.98V9.54Z"/><path class="b" d="M93.89,14.49c.14,2.74-1.96,5.08-4.7,5.22h-.03c-1.11,.06-2.2-.38-2.95-1.21v4.89h-2.97V9.54h2.97v.93c.75-.82,1.83-1.27,2.95-1.21,2.74,.13,4.86,2.45,4.73,5.2v.03Zm-2.97,0c-.03-1.3-1.11-2.33-2.41-2.3s-2.33,1.11-2.3,2.41c.03,1.28,1.08,2.3,2.36,2.3,1.25,.06,2.3-.91,2.36-2.16,0-.09,0-.17,0-.26Z"/><path class="b" d="M103.05,16.47c0,2.28-1.98,3.25-4.12,3.25-1.77,.16-3.45-.77-4.26-2.36l2.57-1.47c.21,.74,.91,1.22,1.68,1.17,.71,0,1.07-.22,1.07-.61,0-1.09-4.87-.51-4.87-3.94,0-2.16,1.82-3.25,3.88-3.25,1.58-.05,3.06,.76,3.86,2.12l-2.53,1.37c-.23-.53-.75-.87-1.33-.87-.51,0-.83,.2-.83,.55,0,1.13,4.87,.38,4.87,4.04Z"/><path class="b" d="M113.9,9.54v9.9h-2.97v-.93c-.69,.83-1.75,1.28-2.83,1.21-2,0-3.7-1.42-3.7-4.1v-6.08h2.97v5.64c-.09,.9,.56,1.7,1.45,1.79,.09,0,.18,.01,.27,0,1.09,0,1.84-.63,1.84-2.04v-5.4h2.97Z"/><path class="b" d="M130.93,13.36v6.08h-2.97v-5.82c0-.99-.48-1.62-1.43-1.62s-1.54,.69-1.54,1.86v5.58h-2.97v-5.82c0-.99-.48-1.62-1.43-1.62s-1.54,.69-1.54,1.86v5.58h-2.97V9.54h2.97v.91c.63-.82,1.62-1.27,2.65-1.19,1.03-.05,2.02,.45,2.59,1.31,.67-.9,1.75-1.39,2.87-1.31,2.27,0,3.76,1.62,3.76,4.1Z"/><circle class="b" cx="133.44" cy="7.28" r="2.2"/></svg>