<svg id="icon-volume-up-circle-filled" xmlns="http://www.w3.org/2000/svg" width="24" height="24" viewBox="0 0 24 24">
  <rect id="Rechteck_1993" data-name="Rechteck 1993" width="24" height="24" fill="none"/>
  <path id="Differenzmenge_13" data-name="Differenzmenge 13" d="M10,20A10,10,0,1,1,20,10,10.011,10.011,0,0,1,10,20ZM11.871,4.664a.584.584,0,0,0-.578.589v.129a.6.6,0,0,0,.388.55,4.527,4.527,0,0,1,0,8.4.593.593,0,0,0-.388.55v.129a.585.585,0,0,0,.581.587.565.565,0,0,0,.2-.037,5.81,5.81,0,0,0,0-10.861A.553.553,0,0,0,11.871,4.664ZM4.828,8.194a.647.647,0,0,0-.647.646v2.587a.647.647,0,0,0,.647.646H6.768L8.895,14.2a.627.627,0,0,0,.451.19A.645.645,0,0,0,10,13.741V6.52a.653.653,0,0,0-.654-.649.627.627,0,0,0-.451.19L6.768,8.194Zm6.465-.666v5.2a2.9,2.9,0,0,0,0-5.2Z" transform="translate(2 2)"/>
</svg>
