<svg id="icon-backward" xmlns="http://www.w3.org/2000/svg" width="24" height="24" viewBox="0 0 24 24">
  <path id="fast_forward_black_24dp" d="M5.58,16.89l5.77-4.07a1,1,0,0,0,0-1.63L5.58,7.11A1,1,0,0,0,4,7.93v8.14A1,1,0,0,0,5.58,16.89ZM13,7.93v8.14a1,1,0,0,0,1.58.82l5.77-4.07a1,1,0,0,0,0-1.63L14.58,7.12A1,1,0,0,0,13,7.93Z" transform="translate(24.77 24.07) rotate(180)"/>
  <g id="Gruppe_3645" data-name="Gruppe 3645">
    <rect id="Rechteck_716" data-name="Rechteck 716" width="24" height="24" fill="none"/>
  </g>
</svg>
