<svg id="icon-volume-up" xmlns="http://www.w3.org/2000/svg" width="24" height="24" viewBox="0 0 24 24">
  <path id="volume_up_black_24dp" d="M3,10v4a1,1,0,0,0,1,1H7l3.29,3.29A1,1,0,0,0,12,17.58V6.41a1,1,0,0,0-1.71-.71L7,9H4A1,1,0,0,0,3,10Zm13.5,2A4.5,4.5,0,0,0,14,7.97v8.05A4.474,4.474,0,0,0,16.5,12ZM14,4.45v.2a.93.93,0,0,0,.6.85,7,7,0,0,1,0,13,.915.915,0,0,0-.6.85v.2a.9.9,0,0,0,1.21.85,8.988,8.988,0,0,0,0-16.8A.9.9,0,0,0,14,4.45Z" transform="translate(0 0.461)"/>
  <g id="Gruppe_3649" data-name="Gruppe 3649">
    <rect id="Rechteck_716" data-name="Rechteck 716" width="24" height="24" fill="none"/>
  </g>
</svg>
