<svg xmlns="http://www.w3.org/2000/svg" width="24" height="24" viewBox="0 0 24 24">
  <g id="icon-ext-people-person" transform="translate(20968 9058)">
    <g id="svg-40" transform="translate(-20968 -9058)">
      <path id="a" d="M12,12A4,4,0,1,0,8,8,4,4,0,0,0,12,12Zm0,2c-2.67,0-8,1.34-8,4v2H20V18C20,15.34,14.67,14,12,14Z"/>
      <path id="Pfad_69" data-name="Pfad 69" d="M12,12A4,4,0,1,0,8,8,4,4,0,0,0,12,12Zm0,2c-2.67,0-8,1.34-8,4v2H20V18C20,15.34,14.67,14,12,14Z"/>
    </g>
    <rect id="Rechteck_85" data-name="Rechteck 85" width="24" height="24" transform="translate(-20968 -9058)" fill="none"/>
  </g>
</svg>
