<svg id="icon-forward-circle-filled" xmlns="http://www.w3.org/2000/svg" width="24" height="24" viewBox="0 0 24 24">
  <rect id="Rechteck_769" data-name="Rechteck 769" width="24" height="24" fill="none"/>
  <path id="Differenzmenge_8" data-name="Differenzmenge 8" d="M10,20A10,10,0,1,1,20,10,10.011,10.011,0,0,1,10,20ZM11.928,6.491a.692.692,0,0,0-.692.69v5.64a.7.7,0,0,0,1.094.568l4-2.82A.7.7,0,0,0,16.619,10a.675.675,0,0,0-.291-.558l-4-2.82A.7.7,0,0,0,11.928,6.491Zm-6.23,0a.7.7,0,0,0-.7.693v5.64a.7.7,0,0,0,1.094.568l4-2.82A.7.7,0,0,0,10.384,10a.675.675,0,0,0-.291-.558l-4-2.827A.7.7,0,0,0,5.7,6.488Z" transform="translate(2 2)"/>
</svg>
