<svg id="icon-sm-facebook-circle" xmlns="http://www.w3.org/2000/svg" width="23.998" height="24.002" viewBox="0 0 23.998 24.002">
  <path id="Differenzmenge_23" data-name="Differenzmenge 23" d="M-17095,22788a11.917,11.917,0,0,1-8.484-3.518A11.915,11.915,0,0,1-17107,22776a12.012,12.012,0,0,1,12-12,11.915,11.915,0,0,1,8.484,3.516A11.91,11.91,0,0,1-17083,22776a11.909,11.909,0,0,1-3.516,8.486A11.91,11.91,0,0,1-17095,22788Zm-3.008-14.26v2.238h1.5v5.994h2.26v-5.994h1.854l.359-2.236h-2.213v-.691a.736.736,0,0,1,.709-.789h1.551v-2.287h-1.818v.01a2.741,2.741,0,0,0-2.16.848,2.826,2.826,0,0,0-.535,1.768l0,0,0,0v1.145h-1.5Z" transform="translate(17106.998 -22764)"/>
</svg>
