<svg id="icon-sm-linkedin" xmlns="http://www.w3.org/2000/svg" width="24" height="24" viewBox="0 0 24 24">
  <path id="Pfad_179" data-name="Pfad 179" d="M12,0A12,12,0,1,1,0,12,12,12,0,0,1,12,0Z"/>
  <path id="Pfad_180" data-name="Pfad 180" d="M81.945,83.318h2.247v-7.49H81.945ZM90.7,75.569a3.373,3.373,0,0,0-2.758,1.277V75.8H85.685v7.514h2.255V79.255a1.784,1.784,0,0,1,1.772-1.7c.985,0,1.229.838,1.229,1.676v4.084h2.247V79.066C93.188,76.113,91.79,75.569,90.7,75.569Zm-7.641-.489a1.125,1.125,0,1,0-1.125-1.125A1.125,1.125,0,0,0,83.058,75.08Z" transform="translate(-75.183 -66.83)" fill="#fff"/>
</svg>
