<?xml version="1.0" encoding="utf-8"?>
<!-- Generator: Adobe Illustrator 27.6.0, SVG Export Plug-In . SVG Version: 6.00 Build 0)  -->
<svg version="1.1" id="Layer_2" xmlns="http://www.w3.org/2000/svg" xmlns:xlink="http://www.w3.org/1999/xlink" x="0px" y="0px"
	 viewBox="0 0 24 24" style="enable-background:new 0 0 24 24;" xml:space="preserve">
<style type="text/css">
	.st0{fill-rule:evenodd;clip-rule:evenodd;}
</style>
<path class="st0" d="M12,3c2.4,0,4.6,0.9,6.3,2.6C20,7.3,21,9.5,21,11.9c0,4.9-4.1,8.9-9,8.9h0c-1.5,0-3-0.4-4.3-1.1L3,21l1.3-4.6
	c-0.8-1.4-1.2-2.9-1.2-4.5C3.1,7,7.1,3,12,3z M12.6,15.8c1.1,0.5,1.6,0.5,2.3,0.4c0.4-0.1,1.3-0.5,1.5-1.1c0.2-0.5,0.2-1,0.1-1.1
	c0-0.1-0.2-0.1-0.3-0.2c0,0-0.1,0-0.1,0c-0.2-0.1-1.3-0.6-1.5-0.7c0,0,0,0,0,0c-0.2-0.1-0.4-0.1-0.5,0.1c-0.1,0.2-0.6,0.7-0.7,0.9
	c-0.1,0.1-0.2,0.2-0.4,0.1c0,0,0,0-0.1,0c-1.3-0.7-2.2-1.2-3-2.7c-0.1-0.2,0-0.3,0.1-0.5c0.1-0.1,0.3-0.4,0.5-0.7
	c0.1-0.1,0-0.3,0-0.4c0-0.1-0.3-0.6-0.5-1.1C9.9,8.5,9.9,8.3,9.8,8.2C9.7,8,9.6,7.9,9.5,7.8c-0.1,0-0.1,0-0.1,0c0,0,0,0-0.1,0
	c-0.1,0-0.3,0-0.4,0S8.5,7.9,8.3,8.1c0,0,0,0,0,0C8,8.4,7.5,8.9,7.5,10c0,1.1,0.8,2.1,0.9,2.3c0,0,0,0,0,0c0,0,0,0,0,0.1
	c0.3,0.4,1.7,2.4,3.8,3.3C12.4,15.7,12.5,15.7,12.6,15.8z"/>
</svg>
