<svg id="icon-image-circle-filled" xmlns="http://www.w3.org/2000/svg" width="24" height="24" viewBox="0 0 24 24">
  <g id="Gruppe_3652" data-name="Gruppe 3652">
    <rect id="Rechteck_716" data-name="Rechteck 716" width="24" height="24" fill="none"/>
  </g>
  <path id="Differenzmenge_22" data-name="Differenzmenge 22" d="M-17571,22882a10.011,10.011,0,0,1-10-10,10.013,10.013,0,0,1,10-10,10.016,10.016,0,0,1,10,10A10.013,10.013,0,0,1-17571,22882Zm-3.889-15a1.112,1.112,0,0,0-1.113,1.109v7.781a1.11,1.11,0,0,0,1.113,1.107h7.775a1.11,1.11,0,0,0,1.113-1.107v-7.781a1.112,1.112,0,0,0-1.113-1.109Zm7.23,8.338h-6.662a.273.273,0,0,1-.25-.154.276.276,0,0,1,.031-.293l1.385-1.781a.262.262,0,0,1,.219-.113.267.267,0,0,1,.211.1l1.172,1.406,1.717-2.217a.285.285,0,0,1,.223-.107.287.287,0,0,1,.227.113l1.945,2.6a.268.268,0,0,1,.027.289A.268.268,0,0,1-17567.658,22875.338Z" transform="translate(17583 -22860)"/>
</svg>
