<svg width="24" height="24" viewBox="0 0 24 24" fill="none" xmlns="http://www.w3.org/2000/svg">
<path d="M15.2137 7.1835C14.3966 5.35236 12.6697 5.20956 12.1558 5.20956H11.8694C11.3556 5.20956 9.62867 5.35236 8.81156 7.1835C8.55042 7.77148 8.62624 8.98944 8.6852 9.88821L8.7189 10.5266L8.60939 10.7198C8.51672 10.829 8.29771 11.0474 7.87651 11.0978C8.12923 11.2406 8.37352 11.4422 8.5083 11.7529C8.60939 11.9881 8.67678 12.3829 8.41564 12.9121C8.3314 13.1137 7.56483 14.7937 5.88849 15.5496C6.07381 15.6 6.3181 15.6504 6.61294 15.6924C7.12251 15.7757 7.23445 16.272 7.31021 16.608L7.31212 16.6164C7.67434 16.5492 8.28086 16.482 8.88737 16.5828C9.43492 16.6752 9.85611 16.9692 10.2689 17.2632C10.7659 17.616 11.2292 17.9435 11.92 17.9435H12.1053C12.7946 17.9435 13.2574 17.6173 13.7449 17.2737L13.7479 17.2716C14.1691 16.9692 14.5903 16.6752 15.1379 16.5828C15.7359 16.482 16.3003 16.5324 16.7131 16.608L16.715 16.5996C16.7908 16.2637 16.9027 15.7674 17.4123 15.6924C17.7071 15.642 17.943 15.6 18.1367 15.5496C16.4604 14.7937 15.6938 13.1137 15.6012 12.8953C15.3485 12.3913 15.4158 11.9965 15.5169 11.7529C15.6517 11.4422 15.896 11.2322 16.1571 11.0894C15.7275 11.0306 15.5169 10.829 15.458 10.7618L15.34 10.6358L15.3063 10.4174L15.34 9.89661C15.399 8.99784 15.4748 7.77148 15.2137 7.1835Z" fill="#2A363C"/>
<path fill-rule="evenodd" clip-rule="evenodd" d="M12 24C18.6274 24 24 18.6274 24 12C24 5.37258 18.6274 0 12 0C5.37258 0 0 5.37258 0 12C0 18.6274 5.37258 24 12 24ZM16.6928 12.402C16.7688 12.5653 17.6219 14.3999 19.3666 14.6845L19.3498 14.6593C19.7457 14.7181 20.0237 15.0708 19.9984 15.4656C19.9984 15.558 19.9731 15.6588 19.931 15.7596C19.8131 16.0284 19.5772 16.2468 19.2066 16.4148C18.8865 16.566 18.44 16.692 17.8756 16.7928C17.8672 16.8096 17.8672 16.818 17.8672 16.8348C17.8419 16.9608 17.8166 17.0868 17.7745 17.2212C17.665 17.5908 17.3617 17.8176 16.9827 17.8176C16.8563 17.8176 16.7131 17.8008 16.5362 17.7672C16.2414 17.7084 15.7949 17.658 15.3232 17.7336C15.059 17.7747 14.7948 17.9611 14.4593 18.1978L14.4387 18.2123C13.8743 18.6155 13.1667 19.1111 12.0969 19.1111H11.9031C10.8333 19.1111 10.1341 18.6155 9.5697 18.2123C9.23275 17.9687 8.96319 17.7756 8.6852 17.7336C8.21347 17.658 7.75016 17.7252 7.47217 17.7756C7.29527 17.8092 7.16049 17.8344 7.04255 17.8344C6.64663 17.8344 6.34338 17.616 6.23387 17.238C6.1958 17.1241 6.17149 17.0102 6.14851 16.9025C6.14607 16.8911 6.14363 16.8797 6.1412 16.8684C6.13945 16.8631 6.13769 16.8582 6.13601 16.8536C6.12963 16.8358 6.12436 16.8211 6.12436 16.8012C5.55996 16.7004 5.1135 16.5744 4.79339 16.4232C4.42274 16.2552 4.18688 16.0368 4.06894 15.768C4.03525 15.6756 4.00155 15.5748 4.00155 15.474C3.97628 15.0708 4.26269 14.7265 4.65019 14.6593C5.05453 14.5921 5.4336 14.4409 5.7874 14.2141C6.09066 14.0209 6.36865 13.7773 6.62136 13.4749C7.08467 12.9373 7.31212 12.4249 7.32054 12.3997C7.39636 12.2317 7.39636 12.1813 7.39636 12.1813C7.34179 12.1114 7.02032 12.0055 6.87252 11.9568C6.8606 11.9528 6.84981 11.9493 6.84038 11.9461C6.75155 11.924 6.67573 11.8954 6.61292 11.8717C6.60425 11.8684 6.59584 11.8652 6.58767 11.8621C6.30126 11.7445 6.06539 11.6102 5.89691 11.459C5.49257 11.0894 5.51784 10.6946 5.55154 10.535C5.6105 10.2494 5.79583 10.0058 6.07381 9.83781C6.41919 9.63622 6.85723 9.59422 7.17734 9.74541C7.30369 9.80421 7.39636 9.83781 7.48059 9.86301C7.4132 8.76265 7.35424 7.49429 7.71646 6.67951C7.96918 6.10833 8.31455 5.62115 8.73574 5.21796C9.09797 4.88197 9.51074 4.60478 9.96562 4.40319C10.7575 4.0588 11.4988 4 11.8694 4H12.1642C12.5349 4 13.2762 4.0588 14.068 4.40319C14.5313 4.60478 14.9441 4.88197 15.2979 5.21796C15.7191 5.62115 16.0645 6.11673 16.3172 6.68791C16.6878 7.51949 16.6205 8.78784 16.5531 9.84621C16.5911 9.83536 16.6327 9.81751 16.6801 9.79717C16.7061 9.78602 16.7338 9.77412 16.7637 9.76221C17.1933 9.56902 17.4797 9.65302 17.7408 9.76221C18.1873 9.92181 18.4905 10.2914 18.4905 10.7114C18.4905 10.9634 18.3895 11.2154 18.1873 11.4254C18.0188 11.6018 17.7661 11.7529 17.4376 11.8873C17.4132 11.8955 17.3879 11.9044 17.3618 11.9137C17.3067 11.9333 17.2477 11.9543 17.1848 11.9713C17.1701 11.9766 17.1513 11.9831 17.1296 11.9905C16.9787 12.0424 16.6878 12.1425 16.6289 12.2233C16.6289 12.2233 16.6289 12.2821 16.6878 12.3913C16.6887 12.3929 16.6903 12.3965 16.6928 12.402Z" fill="#2A363C"/>
</svg>
