<svg id="icon-sm-instagram" xmlns="http://www.w3.org/2000/svg" width="24" height="24" viewBox="0 0 24 24">
  <rect id="Rechteck_1356" data-name="Rechteck 1356" width="24" height="24" fill="none"/>
  <path id="Differenzmenge_6" data-name="Differenzmenge 6" d="M7,14c-1.891,0-2.139-.008-2.886-.042a5.132,5.132,0,0,1-1.7-.326A3.588,3.588,0,0,1,.368,11.585a5.132,5.132,0,0,1-.326-1.7C.008,9.14,0,8.892,0,7S.008,4.86.042,4.114a5.105,5.105,0,0,1,.325-1.7A3.586,3.586,0,0,1,2.415.367a5.105,5.105,0,0,1,1.7-.325C4.86.008,5.108,0,7,0S9.14.008,9.886.042a5.105,5.105,0,0,1,1.7.325,3.589,3.589,0,0,1,2.047,2.048,5.132,5.132,0,0,1,.326,1.7C13.992,4.86,14,5.108,14,7s-.008,2.14-.042,2.887a5.142,5.142,0,0,1-.326,1.7,3.588,3.588,0,0,1-2.047,2.047,5.132,5.132,0,0,1-1.7.326C9.14,13.992,8.892,14,7,14ZM7,1.26c-1.852,0-2.075.007-2.827.042a3.859,3.859,0,0,0-1.3.241,2.321,2.321,0,0,0-1.329,1.33,3.856,3.856,0,0,0-.241,1.3C1.267,4.924,1.26,5.148,1.26,7s.007,2.076.042,2.828a3.859,3.859,0,0,0,.241,1.3,2.321,2.321,0,0,0,1.33,1.329,3.856,3.856,0,0,0,1.3.241c.734.034.955.041,2.827.041s2.1-.007,2.828-.042a3.858,3.858,0,0,0,1.3-.24,2.321,2.321,0,0,0,1.329-1.33,3.856,3.856,0,0,0,.241-1.3c.034-.734.041-.955.041-2.828s-.007-2.1-.042-2.827a3.858,3.858,0,0,0-.24-1.3,2.321,2.321,0,0,0-1.33-1.329,3.856,3.856,0,0,0-1.3-.241C9.076,1.267,8.852,1.26,7,1.26ZM7,10.6A3.595,3.595,0,1,1,10.6,7,3.571,3.571,0,0,1,7,10.6ZM7,4.76A2.24,2.24,0,1,0,9.24,7,2.242,2.242,0,0,0,7,4.76ZM10.736,4.1a.84.84,0,1,1,.841-.84A.841.841,0,0,1,10.736,4.1Z" transform="translate(5 5)"/>
</svg>
