<svg id="icon-blockquote-round" xmlns="http://www.w3.org/2000/svg" width="24" height="24" viewBox="0 0 24 24">
  <g id="Gruppe_1735" data-name="Gruppe 1735" transform="translate(18415 620)">
    <path id="Vereinigungsmenge_2" data-name="Vereinigungsmenge 2" d="M3.174,12.285c-.162-.142-1.067-.852-1.561-1.239l-.452-.355c-.253-.2-.3-.235-.338-.38a.444.444,0,0,1,.111-.427A7.259,7.259,0,0,0,2.618,7.316a4.73,4.73,0,0,0,.186-.65H.444A.444.444,0,0,1,0,6.222V.444A.444.444,0,0,1,.444,0H6.222a.444.444,0,0,1,.444.444V6.234a7.974,7.974,0,0,1-.382,2.014,9.909,9.909,0,0,1-2.463,4.058l0,0h0a.447.447,0,0,1-.311.126A.446.446,0,0,1,3.174,12.285Zm.333-.294h0Zm0,0A9.117,9.117,0,0,0,6.222,6.222v0A9.117,9.117,0,0,1,3.508,11.99Zm-2.256-1.8c0,.013,2.249,1.755,2.256,1.8-.006-.04-2.252-1.782-2.256-1.8ZM.444,6.222h0Z" transform="translate(-18411 -614)"/>
    <path id="Vereinigungsmenge_4" data-name="Vereinigungsmenge 4" d="M3.174,12.285c-.162-.142-1.067-.852-1.561-1.239l-.452-.355c-.253-.2-.3-.235-.338-.38a.444.444,0,0,1,.111-.427A7.259,7.259,0,0,0,2.618,7.316a4.73,4.73,0,0,0,.186-.65H.444A.444.444,0,0,1,0,6.222V.444A.444.444,0,0,1,.444,0H6.222a.444.444,0,0,1,.444.444V6.234a7.974,7.974,0,0,1-.382,2.014,9.909,9.909,0,0,1-2.463,4.058l0,0h0a.447.447,0,0,1-.311.126A.446.446,0,0,1,3.174,12.285Zm.333-.294h0Zm0,0A9.117,9.117,0,0,0,6.222,6.222v0A9.117,9.117,0,0,1,3.508,11.99Zm-2.256-1.8c0,.013,2.249,1.755,2.256,1.8-.006-.04-2.252-1.782-2.256-1.8ZM.444,6.222h0Z" transform="translate(-18401.666 -614)"/>
  </g>
  <path id="Pfad_323" data-name="Pfad 323" d="M0,0H24V24H0Z" fill="none"/>
</svg>
