<svg width="24" height="24" viewBox="0 0 24 24" fill="none" xmlns="http://www.w3.org/2000/svg">
<path fill-rule="evenodd" clip-rule="evenodd" d="M8.84998 17.25C9.80176 17.8202 10.8905 18.1209 12 18.12C13.6382 18.1174 15.2086 17.4654 16.3669 16.307C17.5254 15.1486 18.1774 13.5782 18.1799 11.94C18.1832 11.128 18.0249 10.3233 17.7142 9.57309C17.4034 8.82281 16.9465 8.14191 16.37 7.57001C15.2946 6.50439 13.8654 5.87064 12.3536 5.78894C10.8419 5.70724 9.35278 6.18329 8.1687 7.1268C6.98474 8.07031 6.18823 9.41559 5.93042 10.9074C5.67261 12.3993 5.97131 13.9338 6.77002 15.22L6.90991 15.45L6.28992 17.73L8.63 17.12L8.84998 17.25ZM15.0737 13.3219L15.1001 13.3347C15.2446 13.4052 15.3638 13.4634 15.4199 13.49C15.61 13.58 15.73 13.63 15.7799 13.7C15.8232 13.9979 15.7853 14.3019 15.6699 14.58C15.5314 14.8052 15.348 14.9995 15.1313 15.1508C14.9146 15.3022 14.6691 15.4074 14.4099 15.46C14.0199 15.5286 13.6191 15.5046 13.24 15.39C12.97 15.3 12.63 15.19 12.1899 15C10.9025 14.3582 9.80334 13.3934 9 12.2C8.56213 11.6387 8.30115 10.96 8.25 10.25C8.24573 9.96082 8.30127 9.67386 8.41309 9.40714C8.52502 9.14041 8.69067 8.89969 8.90002 8.70001C9.02954 8.56015 9.20947 8.47745 9.40002 8.47H9.79993C9.81128 8.47 9.823 8.46945 9.83508 8.4689C9.93921 8.46414 10.0665 8.45831 10.21 8.79001C10.2285 8.83304 10.2506 8.88336 10.2753 8.93884L10.3756 9.16449C10.5601 9.578 10.7899 10.0934 10.7899 10.16C10.7949 10.1703 10.7994 10.1809 10.8035 10.1916C10.8102 10.2096 10.8156 10.2281 10.8196 10.2469C10.825 10.2725 10.8276 10.2987 10.8276 10.325C10.8276 10.3821 10.8148 10.4385 10.7899 10.49C10.7739 10.5282 10.7562 10.5657 10.7369 10.6022C10.7212 10.632 10.7045 10.6612 10.6866 10.6897C10.663 10.7276 10.6373 10.7645 10.61 10.8L10.6074 10.8029C10.5083 10.9119 10.4092 11.0209 10.33 11.12L10.3066 11.1486C10.2312 11.2397 10.1504 11.3371 10.25 11.5C10.514 11.9795 10.8514 12.4148 11.25 12.79C11.6902 13.1798 12.1942 13.491 12.74 13.71C12.7782 13.7382 12.8127 13.7603 12.8445 13.7766C12.886 13.7978 12.9226 13.8091 12.9562 13.811C12.9706 13.8118 12.9845 13.8109 12.998 13.8083C13.0055 13.8069 13.0129 13.8049 13.0201 13.8024C13.0619 13.7882 13.1003 13.7569 13.14 13.71C13.25 13.58 13.6 13.17 13.73 12.98C13.86 12.79 13.98 12.81 14.15 12.88C14.198 12.8998 14.3052 12.95 14.4385 13.0138C14.6289 13.1049 14.8727 13.2238 15.0737 13.3219Z" fill="#2A363C"/>
<path fill-rule="evenodd" clip-rule="evenodd" d="M12 24C18.6274 24 24 18.6274 24 12C24 5.37259 18.6274 0 12 0C5.37256 0 0 5.37259 0 12C0 18.6274 5.37256 24 12 24ZM14.8655 5.05493C15.774 5.42932 16.5984 5.9819 17.2899 6.68002C18.3389 7.72122 19.0538 9.05127 19.3439 10.5005C19.6338 11.9497 19.4856 13.4525 18.9181 14.8171C18.3506 16.1818 17.3894 17.3464 16.1573 18.1627C14.9252 18.9789 13.4779 19.4096 12 19.4H12.0541C10.823 19.3979 9.61157 19.0886 8.52991 18.5L4.58997 19.5L5.58997 15.65C4.9408 14.5217 4.59912 13.2428 4.59888 11.9411C4.59875 10.6393 4.94006 9.36035 5.58875 8.23184C6.23755 7.1033 7.17114 6.16473 8.29614 5.50989C9.42114 4.85504 10.6982 4.50684 12 4.5C12.9825 4.49182 13.9569 4.68051 14.8655 5.05493Z" fill="#2A363C"/>
</svg>
