<svg id="icon-sm-linkedin" xmlns="http://www.w3.org/2000/svg" width="24" height="24" viewBox="0 0 24 24">
  <rect id="Rechteck_1358" data-name="Rechteck 1358" width="24" height="24" fill="none"/>
  <path id="Pfad_180" data-name="Pfad 180" d="M81.946,84.478h2.5V76.16h-2.5Zm9.722-8.606A3.746,3.746,0,0,0,88.6,77.29V76.133H86.1v8.345h2.5V79.965a1.981,1.981,0,0,1,1.968-1.884c1.094,0,1.364.93,1.364,1.861v4.535h2.5V79.756C94.433,76.477,92.88,75.872,91.668,75.872Zm-8.486-.543a1.249,1.249,0,1,0-1.249-1.249A1.25,1.25,0,0,0,83.182,75.329Z" transform="translate(-75.934 -66.83)"/>
</svg>
