<svg width="24" height="24" viewBox="0 0 24 24" fill="none" xmlns="http://www.w3.org/2000/svg">
<mask id="path-1-outside-1_2170_4408" maskUnits="userSpaceOnUse" x="2" y="2" width="20" height="19" fill="black">
<rect fill="white" x="2" y="2" width="20" height="19"/>
<path fill-rule="evenodd" clip-rule="evenodd" d="M12.1731 3C12.1575 3 12.1421 3 12.1282 3.00019C12.0174 3.00131 11.8352 3.00309 11.8188 3.00328C11.4192 3.00328 10.6197 3.05998 9.76095 3.44074C9.26994 3.65829 8.82828 3.95246 8.44828 4.31508C7.99524 4.74715 7.62616 5.27987 7.3515 5.89866C6.94925 6.80468 7.04474 8.33077 7.12143 9.55715L7.12171 9.55907C7.12992 9.69041 7.13855 9.82756 7.14643 9.9612C7.08742 9.98842 6.99175 10.0171 6.85073 10.0171C6.62384 10.0171 6.35403 9.94428 6.04899 9.80071C5.95924 9.75873 5.85681 9.7375 5.74378 9.7375C5.56218 9.7375 5.37073 9.7912 5.20467 9.88927C4.99573 10.0125 4.86073 10.1867 4.82407 10.3798C4.7999 10.5075 4.80107 10.76 5.08026 11.016C5.23382 11.1569 5.45941 11.2869 5.75059 11.4025C5.827 11.4327 5.91768 11.4616 6.01373 11.4922C6.34703 11.5986 6.85148 11.7594 6.98302 12.0704C7.04968 12.228 7.021 12.4355 6.89799 12.6863C6.89477 12.6931 6.89155 12.6998 6.88861 12.7069C6.85787 12.779 6.57108 13.4315 5.9828 14.1197C5.64852 14.511 5.28033 14.8381 4.88905 15.0921C4.41147 15.4021 3.8947 15.6048 3.35326 15.6944C3.14064 15.7295 2.9888 15.9198 3.00065 16.136C3.00429 16.1983 3.01884 16.2604 3.04408 16.3206L3.04468 16.3216C3.13066 16.5236 3.32998 16.6952 3.65405 16.8466C4.05004 17.0313 4.64228 17.1868 5.41416 17.3084C5.45316 17.3829 5.49365 17.5701 5.52169 17.6983C5.55103 17.8346 5.58163 17.9747 5.62524 18.1235C5.67231 18.2847 5.79439 18.4774 6.108 18.4774C6.22686 18.4774 6.36354 18.4505 6.52182 18.4197C6.75361 18.374 7.07058 18.3117 7.4662 18.3117C7.68554 18.3117 7.91286 18.3311 8.14167 18.3692C8.58272 18.443 8.96295 18.7128 9.40288 19.0252C10.0468 19.4825 10.7757 20 11.8893 20C11.9197 20 11.9501 19.999 11.9802 19.9969C12.017 19.9986 12.0627 20 12.1108 20C13.2247 20 13.9534 19.4823 14.5967 19.0254L14.5977 19.0245C15.0377 18.7124 15.4175 18.443 15.8584 18.3692C16.0872 18.3311 16.3144 18.3117 16.5339 18.3117C16.9118 18.3117 17.211 18.3601 17.4782 18.4124C17.6526 18.4469 17.7881 18.4635 17.8921 18.4635L17.9023 18.4637H17.9128C18.1422 18.4637 18.3107 18.3372 18.375 18.1159C18.4178 17.9702 18.4483 17.8334 18.4784 17.6948C18.5046 17.5747 18.5465 17.3821 18.5855 17.3068C19.3579 17.185 19.9499 17.0299 20.3459 16.8452C20.6692 16.6945 20.8683 16.5231 20.9548 16.322C20.9808 16.2617 20.9959 16.1992 20.9993 16.1355C21.0115 15.9197 20.8594 15.729 20.6467 15.6939C18.2403 15.2956 17.1563 12.812 17.1114 12.7064C17.1086 12.6995 17.1053 12.6926 17.1019 12.6859C16.9789 12.4351 16.9505 12.2278 17.0172 12.0698C17.1484 11.7591 17.6526 11.5984 17.9861 11.492C18.0827 11.4615 18.1737 11.4324 18.2495 11.4023C18.5778 11.2721 18.8125 11.1307 18.9673 10.9703C19.1522 10.7789 19.1883 10.5956 19.186 10.4757C19.1804 10.1855 18.9595 9.92755 18.6081 9.80127C18.4895 9.75198 18.3541 9.72598 18.2164 9.72598C18.1225 9.72598 17.9836 9.73891 17.8521 9.80057C17.5706 9.9329 17.3184 10.0052 17.1019 10.0156C16.9868 10.0097 16.9061 9.98463 16.8538 9.96068C16.8603 9.84748 16.8676 9.73118 16.8751 9.60991L16.8783 9.55799C16.9554 8.33081 17.0512 6.80356 16.6487 5.89688C16.3729 5.27588 16.0025 4.74181 15.5477 4.30881C15.1662 3.94595 14.723 3.65183 14.2302 3.43441C13.3727 3.05646 12.5732 3 12.1731 3ZM12.1731 3.42349C12.8474 3.42349 15.1693 3.60544 16.2635 6.06959C16.6238 6.88101 16.5315 8.35087 16.4574 9.53161C16.4458 9.71899 16.4344 9.90061 16.425 10.074L16.4211 10.1486L16.4706 10.2041C16.4907 10.2264 16.678 10.423 17.0945 10.4392L17.1012 10.4396L17.1082 10.4394C17.3836 10.4289 17.6938 10.3429 18.0307 10.1844C18.0804 10.1611 18.1464 10.1497 18.2163 10.1497C18.2959 10.1497 18.3806 10.1647 18.4503 10.1943L18.4609 10.1985C18.6375 10.2607 18.7624 10.3779 18.7643 10.484C18.7653 10.544 18.7207 10.76 18.0945 11.0085C18.0333 11.0328 17.9527 11.0586 17.8594 11.0882C17.4518 11.2181 16.8362 11.4143 16.629 11.9047C16.5123 12.181 16.5443 12.507 16.7239 12.8736C16.7977 13.0469 17.961 15.6787 20.5784 16.112C20.5779 16.1244 20.5747 16.1381 20.5677 16.1541C20.5234 16.2591 20.2414 16.6217 18.4867 16.8937C18.2121 16.9359 18.1448 17.2451 18.0668 17.6045C18.0387 17.7332 18.01 17.863 17.9707 17.9972C17.9586 18.0377 17.9564 18.04 17.9131 18.04C17.9072 18.04 17.9002 18.04 17.8925 18.04C17.8147 18.04 17.6966 18.0238 17.5597 17.9968C17.3104 17.948 16.9697 17.8882 16.5343 17.8882C16.2912 17.8882 16.0409 17.9094 15.7897 17.9516C15.2527 18.0412 14.816 18.3515 14.3536 18.6799C13.7325 19.1207 13.0906 19.5768 12.1112 19.5768C12.0684 19.5768 12.0266 19.5754 11.9848 19.5733L11.9738 19.5728L11.9627 19.5737C11.9387 19.5758 11.9145 19.5768 11.8898 19.5768C10.9105 19.5768 10.2683 19.1208 9.64751 18.6799C9.18495 18.3515 8.74804 18.0412 8.21117 17.9516C7.9602 17.9096 7.70961 17.8882 7.46672 17.8882C7.03135 17.8882 6.69031 17.9551 6.44149 18.004C6.30458 18.0309 6.18605 18.0539 6.10847 18.0539C6.04494 18.0539 6.04372 18.0502 6.03029 18.0041C5.99092 17.8698 5.96214 17.7369 5.9341 17.6084C5.85592 17.2486 5.78861 16.9378 5.51418 16.8955C3.75961 16.6233 3.47758 16.26 3.43307 16.1553C3.42612 16.1389 3.423 16.1248 3.4223 16.1123C6.03971 15.6795 7.20269 13.0475 7.27681 12.8736C7.45673 12.5073 7.48864 12.1813 7.3716 11.9047C7.16439 11.4146 6.54883 11.2181 6.14159 11.0884C6.04797 11.0586 5.96736 11.0328 5.90611 11.0085C5.37731 10.7986 5.21465 10.5872 5.23881 10.4591C5.26685 10.3114 5.52183 10.1611 5.74434 10.1611C5.79434 10.1611 5.83819 10.1692 5.87061 10.1845C6.23199 10.3546 6.56189 10.4409 6.85125 10.4409C7.30611 10.4409 7.50856 10.2283 7.5303 10.204L7.5796 10.1486L7.57564 10.0745C7.56645 9.90113 7.55512 9.71956 7.54317 9.53255C7.46933 8.35152 7.37697 6.88265 7.73713 6.07119C8.8273 3.61607 11.1379 3.42682 11.82 3.42682C11.8368 3.42682 12.1333 3.42377 12.1333 3.42377C12.1455 3.42368 12.1589 3.42349 12.1731 3.42349Z"/>
</mask>
<path fill-rule="evenodd" clip-rule="evenodd" d="M12.1731 3C12.1575 3 12.1421 3 12.1282 3.00019C12.0174 3.00131 11.8352 3.00309 11.8188 3.00328C11.4192 3.00328 10.6197 3.05998 9.76095 3.44074C9.26994 3.65829 8.82828 3.95246 8.44828 4.31508C7.99524 4.74715 7.62616 5.27987 7.3515 5.89866C6.94925 6.80468 7.04474 8.33077 7.12143 9.55715L7.12171 9.55907C7.12992 9.69041 7.13855 9.82756 7.14643 9.9612C7.08742 9.98842 6.99175 10.0171 6.85073 10.0171C6.62384 10.0171 6.35403 9.94428 6.04899 9.80071C5.95924 9.75873 5.85681 9.7375 5.74378 9.7375C5.56218 9.7375 5.37073 9.7912 5.20467 9.88927C4.99573 10.0125 4.86073 10.1867 4.82407 10.3798C4.7999 10.5075 4.80107 10.76 5.08026 11.016C5.23382 11.1569 5.45941 11.2869 5.75059 11.4025C5.827 11.4327 5.91768 11.4616 6.01373 11.4922C6.34703 11.5986 6.85148 11.7594 6.98302 12.0704C7.04968 12.228 7.021 12.4355 6.89799 12.6863C6.89477 12.6931 6.89155 12.6998 6.88861 12.7069C6.85787 12.779 6.57108 13.4315 5.9828 14.1197C5.64852 14.511 5.28033 14.8381 4.88905 15.0921C4.41147 15.4021 3.8947 15.6048 3.35326 15.6944C3.14064 15.7295 2.9888 15.9198 3.00065 16.136C3.00429 16.1983 3.01884 16.2604 3.04408 16.3206L3.04468 16.3216C3.13066 16.5236 3.32998 16.6952 3.65405 16.8466C4.05004 17.0313 4.64228 17.1868 5.41416 17.3084C5.45316 17.3829 5.49365 17.5701 5.52169 17.6983C5.55103 17.8346 5.58163 17.9747 5.62524 18.1235C5.67231 18.2847 5.79439 18.4774 6.108 18.4774C6.22686 18.4774 6.36354 18.4505 6.52182 18.4197C6.75361 18.374 7.07058 18.3117 7.4662 18.3117C7.68554 18.3117 7.91286 18.3311 8.14167 18.3692C8.58272 18.443 8.96295 18.7128 9.40288 19.0252C10.0468 19.4825 10.7757 20 11.8893 20C11.9197 20 11.9501 19.999 11.9802 19.9969C12.017 19.9986 12.0627 20 12.1108 20C13.2247 20 13.9534 19.4823 14.5967 19.0254L14.5977 19.0245C15.0377 18.7124 15.4175 18.443 15.8584 18.3692C16.0872 18.3311 16.3144 18.3117 16.5339 18.3117C16.9118 18.3117 17.211 18.3601 17.4782 18.4124C17.6526 18.4469 17.7881 18.4635 17.8921 18.4635L17.9023 18.4637H17.9128C18.1422 18.4637 18.3107 18.3372 18.375 18.1159C18.4178 17.9702 18.4483 17.8334 18.4784 17.6948C18.5046 17.5747 18.5465 17.3821 18.5855 17.3068C19.3579 17.185 19.9499 17.0299 20.3459 16.8452C20.6692 16.6945 20.8683 16.5231 20.9548 16.322C20.9808 16.2617 20.9959 16.1992 20.9993 16.1355C21.0115 15.9197 20.8594 15.729 20.6467 15.6939C18.2403 15.2956 17.1563 12.812 17.1114 12.7064C17.1086 12.6995 17.1053 12.6926 17.1019 12.6859C16.9789 12.4351 16.9505 12.2278 17.0172 12.0698C17.1484 11.7591 17.6526 11.5984 17.9861 11.492C18.0827 11.4615 18.1737 11.4324 18.2495 11.4023C18.5778 11.2721 18.8125 11.1307 18.9673 10.9703C19.1522 10.7789 19.1883 10.5956 19.186 10.4757C19.1804 10.1855 18.9595 9.92755 18.6081 9.80127C18.4895 9.75198 18.3541 9.72598 18.2164 9.72598C18.1225 9.72598 17.9836 9.73891 17.8521 9.80057C17.5706 9.9329 17.3184 10.0052 17.1019 10.0156C16.9868 10.0097 16.9061 9.98463 16.8538 9.96068C16.8603 9.84748 16.8676 9.73118 16.8751 9.60991L16.8783 9.55799C16.9554 8.33081 17.0512 6.80356 16.6487 5.89688C16.3729 5.27588 16.0025 4.74181 15.5477 4.30881C15.1662 3.94595 14.723 3.65183 14.2302 3.43441C13.3727 3.05646 12.5732 3 12.1731 3ZM12.1731 3.42349C12.8474 3.42349 15.1693 3.60544 16.2635 6.06959C16.6238 6.88101 16.5315 8.35087 16.4574 9.53161C16.4458 9.71899 16.4344 9.90061 16.425 10.074L16.4211 10.1486L16.4706 10.2041C16.4907 10.2264 16.678 10.423 17.0945 10.4392L17.1012 10.4396L17.1082 10.4394C17.3836 10.4289 17.6938 10.3429 18.0307 10.1844C18.0804 10.1611 18.1464 10.1497 18.2163 10.1497C18.2959 10.1497 18.3806 10.1647 18.4503 10.1943L18.4609 10.1985C18.6375 10.2607 18.7624 10.3779 18.7643 10.484C18.7653 10.544 18.7207 10.76 18.0945 11.0085C18.0333 11.0328 17.9527 11.0586 17.8594 11.0882C17.4518 11.2181 16.8362 11.4143 16.629 11.9047C16.5123 12.181 16.5443 12.507 16.7239 12.8736C16.7977 13.0469 17.961 15.6787 20.5784 16.112C20.5779 16.1244 20.5747 16.1381 20.5677 16.1541C20.5234 16.2591 20.2414 16.6217 18.4867 16.8937C18.2121 16.9359 18.1448 17.2451 18.0668 17.6045C18.0387 17.7332 18.01 17.863 17.9707 17.9972C17.9586 18.0377 17.9564 18.04 17.9131 18.04C17.9072 18.04 17.9002 18.04 17.8925 18.04C17.8147 18.04 17.6966 18.0238 17.5597 17.9968C17.3104 17.948 16.9697 17.8882 16.5343 17.8882C16.2912 17.8882 16.0409 17.9094 15.7897 17.9516C15.2527 18.0412 14.816 18.3515 14.3536 18.6799C13.7325 19.1207 13.0906 19.5768 12.1112 19.5768C12.0684 19.5768 12.0266 19.5754 11.9848 19.5733L11.9738 19.5728L11.9627 19.5737C11.9387 19.5758 11.9145 19.5768 11.8898 19.5768C10.9105 19.5768 10.2683 19.1208 9.64751 18.6799C9.18495 18.3515 8.74804 18.0412 8.21117 17.9516C7.9602 17.9096 7.70961 17.8882 7.46672 17.8882C7.03135 17.8882 6.69031 17.9551 6.44149 18.004C6.30458 18.0309 6.18605 18.0539 6.10847 18.0539C6.04494 18.0539 6.04372 18.0502 6.03029 18.0041C5.99092 17.8698 5.96214 17.7369 5.9341 17.6084C5.85592 17.2486 5.78861 16.9378 5.51418 16.8955C3.75961 16.6233 3.47758 16.26 3.43307 16.1553C3.42612 16.1389 3.423 16.1248 3.4223 16.1123C6.03971 15.6795 7.20269 13.0475 7.27681 12.8736C7.45673 12.5073 7.48864 12.1813 7.3716 11.9047C7.16439 11.4146 6.54883 11.2181 6.14159 11.0884C6.04797 11.0586 5.96736 11.0328 5.90611 11.0085C5.37731 10.7986 5.21465 10.5872 5.23881 10.4591C5.26685 10.3114 5.52183 10.1611 5.74434 10.1611C5.79434 10.1611 5.83819 10.1692 5.87061 10.1845C6.23199 10.3546 6.56189 10.4409 6.85125 10.4409C7.30611 10.4409 7.50856 10.2283 7.5303 10.204L7.5796 10.1486L7.57564 10.0745C7.56645 9.90113 7.55512 9.71956 7.54317 9.53255C7.46933 8.35152 7.37697 6.88265 7.73713 6.07119C8.8273 3.61607 11.1379 3.42682 11.82 3.42682C11.8368 3.42682 12.1333 3.42377 12.1333 3.42377C12.1455 3.42368 12.1589 3.42349 12.1731 3.42349Z" fill="#2A363C"/>
<path fill-rule="evenodd" clip-rule="evenodd" d="M12.1731 3C12.1575 3 12.1421 3 12.1282 3.00019C12.0174 3.00131 11.8352 3.00309 11.8188 3.00328C11.4192 3.00328 10.6197 3.05998 9.76095 3.44074C9.26994 3.65829 8.82828 3.95246 8.44828 4.31508C7.99524 4.74715 7.62616 5.27987 7.3515 5.89866C6.94925 6.80468 7.04474 8.33077 7.12143 9.55715L7.12171 9.55907C7.12992 9.69041 7.13855 9.82756 7.14643 9.9612C7.08742 9.98842 6.99175 10.0171 6.85073 10.0171C6.62384 10.0171 6.35403 9.94428 6.04899 9.80071C5.95924 9.75873 5.85681 9.7375 5.74378 9.7375C5.56218 9.7375 5.37073 9.7912 5.20467 9.88927C4.99573 10.0125 4.86073 10.1867 4.82407 10.3798C4.7999 10.5075 4.80107 10.76 5.08026 11.016C5.23382 11.1569 5.45941 11.2869 5.75059 11.4025C5.827 11.4327 5.91768 11.4616 6.01373 11.4922C6.34703 11.5986 6.85148 11.7594 6.98302 12.0704C7.04968 12.228 7.021 12.4355 6.89799 12.6863C6.89477 12.6931 6.89155 12.6998 6.88861 12.7069C6.85787 12.779 6.57108 13.4315 5.9828 14.1197C5.64852 14.511 5.28033 14.8381 4.88905 15.0921C4.41147 15.4021 3.8947 15.6048 3.35326 15.6944C3.14064 15.7295 2.9888 15.9198 3.00065 16.136C3.00429 16.1983 3.01884 16.2604 3.04408 16.3206L3.04468 16.3216C3.13066 16.5236 3.32998 16.6952 3.65405 16.8466C4.05004 17.0313 4.64228 17.1868 5.41416 17.3084C5.45316 17.3829 5.49365 17.5701 5.52169 17.6983C5.55103 17.8346 5.58163 17.9747 5.62524 18.1235C5.67231 18.2847 5.79439 18.4774 6.108 18.4774C6.22686 18.4774 6.36354 18.4505 6.52182 18.4197C6.75361 18.374 7.07058 18.3117 7.4662 18.3117C7.68554 18.3117 7.91286 18.3311 8.14167 18.3692C8.58272 18.443 8.96295 18.7128 9.40288 19.0252C10.0468 19.4825 10.7757 20 11.8893 20C11.9197 20 11.9501 19.999 11.9802 19.9969C12.017 19.9986 12.0627 20 12.1108 20C13.2247 20 13.9534 19.4823 14.5967 19.0254L14.5977 19.0245C15.0377 18.7124 15.4175 18.443 15.8584 18.3692C16.0872 18.3311 16.3144 18.3117 16.5339 18.3117C16.9118 18.3117 17.211 18.3601 17.4782 18.4124C17.6526 18.4469 17.7881 18.4635 17.8921 18.4635L17.9023 18.4637H17.9128C18.1422 18.4637 18.3107 18.3372 18.375 18.1159C18.4178 17.9702 18.4483 17.8334 18.4784 17.6948C18.5046 17.5747 18.5465 17.3821 18.5855 17.3068C19.3579 17.185 19.9499 17.0299 20.3459 16.8452C20.6692 16.6945 20.8683 16.5231 20.9548 16.322C20.9808 16.2617 20.9959 16.1992 20.9993 16.1355C21.0115 15.9197 20.8594 15.729 20.6467 15.6939C18.2403 15.2956 17.1563 12.812 17.1114 12.7064C17.1086 12.6995 17.1053 12.6926 17.1019 12.6859C16.9789 12.4351 16.9505 12.2278 17.0172 12.0698C17.1484 11.7591 17.6526 11.5984 17.9861 11.492C18.0827 11.4615 18.1737 11.4324 18.2495 11.4023C18.5778 11.2721 18.8125 11.1307 18.9673 10.9703C19.1522 10.7789 19.1883 10.5956 19.186 10.4757C19.1804 10.1855 18.9595 9.92755 18.6081 9.80127C18.4895 9.75198 18.3541 9.72598 18.2164 9.72598C18.1225 9.72598 17.9836 9.73891 17.8521 9.80057C17.5706 9.9329 17.3184 10.0052 17.1019 10.0156C16.9868 10.0097 16.9061 9.98463 16.8538 9.96068C16.8603 9.84748 16.8676 9.73118 16.8751 9.60991L16.8783 9.55799C16.9554 8.33081 17.0512 6.80356 16.6487 5.89688C16.3729 5.27588 16.0025 4.74181 15.5477 4.30881C15.1662 3.94595 14.723 3.65183 14.2302 3.43441C13.3727 3.05646 12.5732 3 12.1731 3ZM12.1731 3.42349C12.8474 3.42349 15.1693 3.60544 16.2635 6.06959C16.6238 6.88101 16.5315 8.35087 16.4574 9.53161C16.4458 9.71899 16.4344 9.90061 16.425 10.074L16.4211 10.1486L16.4706 10.2041C16.4907 10.2264 16.678 10.423 17.0945 10.4392L17.1012 10.4396L17.1082 10.4394C17.3836 10.4289 17.6938 10.3429 18.0307 10.1844C18.0804 10.1611 18.1464 10.1497 18.2163 10.1497C18.2959 10.1497 18.3806 10.1647 18.4503 10.1943L18.4609 10.1985C18.6375 10.2607 18.7624 10.3779 18.7643 10.484C18.7653 10.544 18.7207 10.76 18.0945 11.0085C18.0333 11.0328 17.9527 11.0586 17.8594 11.0882C17.4518 11.2181 16.8362 11.4143 16.629 11.9047C16.5123 12.181 16.5443 12.507 16.7239 12.8736C16.7977 13.0469 17.961 15.6787 20.5784 16.112C20.5779 16.1244 20.5747 16.1381 20.5677 16.1541C20.5234 16.2591 20.2414 16.6217 18.4867 16.8937C18.2121 16.9359 18.1448 17.2451 18.0668 17.6045C18.0387 17.7332 18.01 17.863 17.9707 17.9972C17.9586 18.0377 17.9564 18.04 17.9131 18.04C17.9072 18.04 17.9002 18.04 17.8925 18.04C17.8147 18.04 17.6966 18.0238 17.5597 17.9968C17.3104 17.948 16.9697 17.8882 16.5343 17.8882C16.2912 17.8882 16.0409 17.9094 15.7897 17.9516C15.2527 18.0412 14.816 18.3515 14.3536 18.6799C13.7325 19.1207 13.0906 19.5768 12.1112 19.5768C12.0684 19.5768 12.0266 19.5754 11.9848 19.5733L11.9738 19.5728L11.9627 19.5737C11.9387 19.5758 11.9145 19.5768 11.8898 19.5768C10.9105 19.5768 10.2683 19.1208 9.64751 18.6799C9.18495 18.3515 8.74804 18.0412 8.21117 17.9516C7.9602 17.9096 7.70961 17.8882 7.46672 17.8882C7.03135 17.8882 6.69031 17.9551 6.44149 18.004C6.30458 18.0309 6.18605 18.0539 6.10847 18.0539C6.04494 18.0539 6.04372 18.0502 6.03029 18.0041C5.99092 17.8698 5.96214 17.7369 5.9341 17.6084C5.85592 17.2486 5.78861 16.9378 5.51418 16.8955C3.75961 16.6233 3.47758 16.26 3.43307 16.1553C3.42612 16.1389 3.423 16.1248 3.4223 16.1123C6.03971 15.6795 7.20269 13.0475 7.27681 12.8736C7.45673 12.5073 7.48864 12.1813 7.3716 11.9047C7.16439 11.4146 6.54883 11.2181 6.14159 11.0884C6.04797 11.0586 5.96736 11.0328 5.90611 11.0085C5.37731 10.7986 5.21465 10.5872 5.23881 10.4591C5.26685 10.3114 5.52183 10.1611 5.74434 10.1611C5.79434 10.1611 5.83819 10.1692 5.87061 10.1845C6.23199 10.3546 6.56189 10.4409 6.85125 10.4409C7.30611 10.4409 7.50856 10.2283 7.5303 10.204L7.5796 10.1486L7.57564 10.0745C7.56645 9.90113 7.55512 9.71956 7.54317 9.53255C7.46933 8.35152 7.37697 6.88265 7.73713 6.07119C8.8273 3.61607 11.1379 3.42682 11.82 3.42682C11.8368 3.42682 12.1333 3.42377 12.1333 3.42377C12.1455 3.42368 12.1589 3.42349 12.1731 3.42349Z" stroke="#2A363C" mask="url(#path-1-outside-1_2170_4408)"/>
</svg>
