<svg id="icon-videocam-circle-filled" xmlns="http://www.w3.org/2000/svg" width="24" height="24" viewBox="0 0 24 24">
  <g id="Gruppe_3656" data-name="Gruppe 3656">
    <rect id="Rechteck_716" data-name="Rechteck 716" width="24" height="24" fill="none"/>
  </g>
  <path id="Differenzmenge_33" data-name="Differenzmenge 33" d="M-18217,22490a10.015,10.015,0,0,1-10-10,10.013,10.013,0,0,1,10-10,10.013,10.013,0,0,1,10,10A10.015,10.015,0,0,1-18217,22490Zm-4.387-14a.613.613,0,0,0-.615.609v6.113a.613.613,0,0,0,.615.609h7.332a.61.61,0,0,0,.609-.609v-2.139l1.4,1.395a.6.6,0,0,0,.43.182.613.613,0,0,0,.615-.611v-3.77a.61.61,0,0,0-.617-.617.6.6,0,0,0-.428.182l-1.4,1.406v-2.141a.61.61,0,0,0-.609-.609Z" transform="translate(18229 -22468)"/>
</svg>
