<svg width="430" height="424" viewBox="0 0 430 424" fill="none" xmlns="http://www.w3.org/2000/svg">
<path d="M421.9 340.9C401.2 352.4 387.4 351.1 376.6 358C367.5 363.9 372.9 376.5 366.3 381.1C358.2 386.7 334.1 380.7 303.1 391C277.5 399.5 261.1 423.8 215.1 423.8C169.1 423.8 153.1 399.5 127 390.9C95.9999 380.6 71.8999 386.7 63.7999 381C57.1999 376.4 62.5999 363.8 53.4999 357.9C42.7999 351 28.9999 352.2 8.19989 340.8C-5.0001 333.5 2.4999 329 6.8999 326.9C81.9999 290.5 93.9999 234.3 94.5999 230.2C95.1999 225.2 95.9999 221.2 90.3999 216.1C84.9999 211.1 61.1999 196.4 54.5999 191.8C43.6999 184.2 38.8999 176.5 42.3999 167.2C44.8999 160.7 50.8999 158.3 57.2999 158.3C59.3195 158.313 61.3315 158.548 63.2999 159C75.2999 161.6 86.9999 167.6 93.6999 169.2C94.5185 169.398 95.3577 169.499 96.1999 169.5C99.7999 169.5 101.1 167.7 100.8 163.6C99.9999 150.5 98.1999 124.9 100.2 101C103 68.1004 113.6 51.8004 126.2 37.4004C132.3 30.5004 160.7 0.400391 215.1 0.400391C269.5 0.400391 298 30.3004 304 37.2004C316.6 51.6004 327.2 67.9004 330 100.8C332.1 124.7 330.3 150.3 329.4 163.4C329.1 167.7 330.4 169.3 334 169.3C334.842 169.3 335.681 169.199 336.5 169C343.2 167.4 354.9 161.4 366.9 158.8C368.868 158.348 370.88 158.114 372.9 158.1C379.3 158.1 385.3 160.6 387.8 167C391.3 176.4 386.6 184 375.6 191.6C369 196.2 345.2 210.9 339.8 215.9C334.2 221 335 225 335.6 230C336.1 234.2 348.1 290.4 423.3 326.7C427.6 329 435.1 333.5 421.9 340.9Z" fill="black"/>
</svg>
