<svg width="24" height="24" viewBox="0 0 24 24" fill="none" xmlns="http://www.w3.org/2000/svg">
<path d="M15.8474 13.6763C15.6337 13.575 14.6099 13.0688 14.4187 12.99C14.2274 12.9113 14.0924 12.8888 13.9462 13.1025C13.7999 13.3163 13.4062 13.7775 13.2824 13.9238C13.1587 14.07 13.0462 14.0813 12.8324 13.9238C12.2185 13.6774 11.6515 13.3273 11.1562 12.8888C10.7078 12.4666 10.3282 11.977 10.0312 11.4375C9.90745 11.235 10.0312 11.1225 10.1212 11.01C10.2112 10.8975 10.3237 10.7738 10.4362 10.65C10.5185 10.543 10.5865 10.4258 10.6387 10.3013C10.6666 10.2434 10.6811 10.1799 10.6811 10.1156C10.6811 10.0514 10.6666 9.98791 10.6387 9.93001C10.6387 9.82876 10.1662 8.80501 9.9862 8.38876C9.8062 7.97251 9.6487 8.02876 9.52495 8.02876H9.07495C8.86058 8.03712 8.65828 8.13018 8.51245 8.28751C8.27705 8.51214 8.09059 8.78298 7.96476 9.08304C7.83893 9.3831 7.77643 9.70592 7.7812 10.0313C7.83874 10.83 8.13243 11.5936 8.62495 12.225C9.52874 13.5676 10.7652 14.6529 12.2137 15.375C12.7087 15.5888 13.0912 15.7125 13.3949 15.8138C13.8215 15.9427 14.2723 15.9697 14.7112 15.8925C15.0027 15.8334 15.2789 15.715 15.5227 15.5447C15.7666 15.3744 15.9728 15.1558 16.1287 14.9025C16.2584 14.5897 16.3012 14.2476 16.2524 13.9125C16.1962 13.8338 16.0612 13.7775 15.8474 13.6763Z" fill="#2A363C"/>
<path d="M17.9512 6.01501C17.1732 5.22963 16.2458 4.608 15.2236 4.18679C14.2015 3.76558 13.1054 3.55331 11.9999 3.56251C10.5355 3.57018 9.09875 3.96192 7.83311 4.69863C6.56747 5.43534 5.51726 6.49121 4.78739 7.76081C4.05752 9.0304 3.67352 10.4693 3.67375 11.9337C3.67398 13.3982 4.05842 14.8369 4.7887 16.1063L3.6637 20.4375L8.0962 19.3125C9.32158 19.9793 10.6949 20.3275 12.0899 20.325H11.9999C13.6626 20.3359 15.2908 19.8512 16.677 18.933C18.0631 18.0147 19.1443 16.7045 19.7828 15.1692C20.4213 13.634 20.588 11.9434 20.2618 10.3131C19.9356 8.68267 19.1312 7.18639 17.9512 6.01501ZM11.9999 18.885C10.7518 18.886 9.52689 18.5477 8.4562 17.9063L8.2087 17.76L5.5762 18.4463L6.2737 15.8813L6.1162 15.6225C5.21772 14.1756 4.88163 12.4492 5.1717 10.7709C5.46177 9.09254 6.35781 7.57909 7.68981 6.51765C9.02181 5.45621 10.6971 4.92063 12.3978 5.01254C14.0985 5.10446 15.7063 5.81746 16.9162 7.01626C17.5648 7.65964 18.0789 8.42567 18.4285 9.26972C18.7781 10.1138 18.9562 11.0189 18.9524 11.9325C18.9495 13.7755 18.216 15.5422 16.9128 16.8454C15.6096 18.1486 13.843 18.882 11.9999 18.885Z" fill="#2A363C"/>
</svg>
