<svg id="icon-sm-youtube" xmlns="http://www.w3.org/2000/svg" width="24" height="24" viewBox="0 0 24 24">
  <g id="Background">
    <path id="Pfad_403" data-name="Pfad 403" d="M24,12A12,12,0,1,1,12,0,12,12,0,0,1,24,12"/>
  </g>
  <g id="Logo" transform="translate(3.852 6.252)">
    <path id="The_Sharpness" d="M169.6,158.9l3.834,2.562.54-.276Z" transform="translate(-163.276 -155.618)" opacity="0.12"/>
    <g id="Lozenge">
      <g id="Gruppe_1889" data-name="Gruppe 1889">
        <path id="Pfad_404" data-name="Pfad 404" d="M80.22,106.654a3.491,3.491,0,0,0-.642-1.608,2.286,2.286,0,0,0-1.62-.684c-2.268-.162-5.664-.162-5.664-.162h-.006s-3.4,0-5.664.162a2.3,2.3,0,0,0-1.62.684,3.491,3.491,0,0,0-.642,1.608,24.43,24.43,0,0,0-.162,2.622v1.23a24.578,24.578,0,0,0,.162,2.622A3.491,3.491,0,0,0,65,114.736a2.712,2.712,0,0,0,1.782.69c1.3.126,5.5.162,5.5.162s3.4-.006,5.67-.168a2.3,2.3,0,0,0,1.62-.684,3.491,3.491,0,0,0,.642-1.608,24.429,24.429,0,0,0,.162-2.622v-1.23A24.429,24.429,0,0,0,80.22,106.654Zm-9.606,5.334V107.44l4.374,2.28Z" transform="translate(-64.2 -104.2)" fill="#fff"/>
      </g>
    </g>
  </g>
</svg>
