<svg id="icon-alarm" xmlns="http://www.w3.org/2000/svg" width="24" height="24" viewBox="0 0 24 24">
  <path id="Pfad_603" data-name="Pfad 603" d="M0,0H24V24H0Z" fill="none"/>
  <path id="Pfad_604" data-name="Pfad 604" d="M15.87,15.25l-3.37-2V8.72A.717.717,0,0,0,11.78,8h-.06a.717.717,0,0,0-.72.72v4.72a.99.99,0,0,0,.49.86l3.65,2.19a.719.719,0,1,0,.73-1.24ZM21.18,5.01,18.1,2.45a1,1,0,0,0-1.28,1.54l3.07,2.56a1,1,0,0,0,1.29-1.54ZM4.1,6.55,7.17,3.99A1,1,0,0,0,5.9,2.45L2.82,5.01A1,1,0,0,0,2.7,6.42.988.988,0,0,0,4.1,6.55ZM12,4a9,9,0,1,0,9,9A9,9,0,0,0,12,4Zm0,16a7,7,0,1,1,7-7A7.008,7.008,0,0,1,12,20Z"/>
</svg>
