<svg xmlns="http://www.w3.org/2000/svg" width="24" height="24" viewBox="0 0 24 24">
  <g id="icon-sm-instagram-circle" transform="translate(0 0)">
    <g id="Gruppe_1780" data-name="Gruppe 1780" transform="translate(-16167 22913)">
      <path id="Differenzmenge_25" data-name="Differenzmenge 25" d="M-1244-125a11.923,11.923,0,0,1-8.486-3.515A11.921,11.921,0,0,1-1256-137a11.922,11.922,0,0,1,3.515-8.486A11.922,11.922,0,0,1-1244-149a11.921,11.921,0,0,1,8.485,3.515A11.923,11.923,0,0,1-1232-137a11.921,11.921,0,0,1-3.515,8.485A11.921,11.921,0,0,1-1244-125Zm.249-18c-1.689,0-1.91.007-2.577.038a4.553,4.553,0,0,0-1.516.29,3.2,3.2,0,0,0-1.829,1.829,4.575,4.575,0,0,0-.29,1.516c-.031.666-.038.887-.038,2.577s.007,1.913.038,2.578a4.589,4.589,0,0,0,.291,1.516,3.2,3.2,0,0,0,1.828,1.828,4.589,4.589,0,0,0,1.516.291c.667.031.888.038,2.577.038s1.912-.007,2.578-.038a4.591,4.591,0,0,0,1.517-.291,3.2,3.2,0,0,0,1.828-1.828,4.6,4.6,0,0,0,.291-1.516c.031-.665.038-.886.038-2.578s-.007-1.911-.038-2.577a4.59,4.59,0,0,0-.291-1.516,3.2,3.2,0,0,0-1.828-1.829,4.554,4.554,0,0,0-1.517-.29C-1241.839-142.993-1242.06-143-1243.75-143Zm0,11.374c-1.675,0-1.872-.006-2.525-.037a3.438,3.438,0,0,1-1.16-.215,2.073,2.073,0,0,1-1.187-1.186,3.453,3.453,0,0,1-.215-1.161c-.031-.665-.038-.864-.038-2.525s.007-1.859.038-2.524a3.459,3.459,0,0,1,.215-1.16,2.076,2.076,0,0,1,1.186-1.187,3.461,3.461,0,0,1,1.161-.215c.665-.031.864-.038,2.525-.038s1.86.007,2.525.038a3.451,3.451,0,0,1,1.16.215,2.075,2.075,0,0,1,1.187,1.186,3.445,3.445,0,0,1,.214,1.161c.031.645.038.84.038,2.525s-.006,1.874-.037,2.525a3.432,3.432,0,0,1-.215,1.16,2.071,2.071,0,0,1-1.186,1.187,3.445,3.445,0,0,1-1.161.214C-1241.871-131.633-1242.067-131.626-1243.75-131.626Zm0-8.334a3.213,3.213,0,0,0-3.209,3.209,3.186,3.186,0,0,0,.941,2.27,3.185,3.185,0,0,0,2.269.94,3.214,3.214,0,0,0,3.21-3.21,3.185,3.185,0,0,0-.94-2.269A3.186,3.186,0,0,0-1243.75-139.96Zm3.336-.877a.751.751,0,0,0-.75.751.751.751,0,0,0,.75.75.751.751,0,0,0,.751-.75A.751.751,0,0,0-1240.414-140.837Zm-3.336,6.087a2,2,0,0,1-2-2,2,2,0,0,1,2-2,2,2,0,0,1,2,2A2,2,0,0,1-1243.75-134.75Z" transform="translate(17423 -22764)"/>
    </g>
  </g>
</svg>
