<svg id="icon-calender" xmlns="http://www.w3.org/2000/svg" width="24" height="24" viewBox="0 0 24 24">
  <path id="Pfad_315" data-name="Pfad 315" d="M0,0H24V24H0Z" fill="none"/>
  <g id="svg-10" transform="translate(1 2)">
    <path id="a" d="M15.444,10.778H11v4.444h4.444ZM14.556,1V2.778H7.444V1H5.667V2.778H4.778A1.77,1.77,0,0,0,3.009,4.556L3,17a1.778,1.778,0,0,0,1.778,1.778H17.222A1.783,1.783,0,0,0,19,17V4.556a1.783,1.783,0,0,0-1.778-1.778h-.889V1Zm2.667,16H4.778V7.222H17.222Z"/>
    <path id="Pfad_236" data-name="Pfad 236" d="M15.444,10.778H11v4.444h4.444ZM14.556,1V2.778H7.444V1H5.667V2.778H4.778A1.77,1.77,0,0,0,3.009,4.556L3,17a1.778,1.778,0,0,0,1.778,1.778H17.222A1.783,1.783,0,0,0,19,17V4.556a1.783,1.783,0,0,0-1.778-1.778h-.889V1Zm2.667,16H4.778V7.222H17.222Z"/>
  </g>
</svg>
