<svg id="icon-audiotrack-circle-filled" xmlns="http://www.w3.org/2000/svg" width="24" height="24" viewBox="0 0 24 24">
  <g id="Gruppe_3653" data-name="Gruppe 3653">
    <rect id="Rechteck_716" data-name="Rechteck 716" width="24" height="24" fill="none"/>
  </g>
  <path id="Differenzmenge_30" data-name="Differenzmenge 30" d="M-17729,22490a10.015,10.015,0,0,1-10-10,10.013,10.013,0,0,1,10-10,10.01,10.01,0,0,1,10,10A10.011,10.011,0,0,1-17729,22490Zm-1.338-9.33a2.654,2.654,0,0,0-.881.152,2.7,2.7,0,0,0-1.744,2.043,2.688,2.688,0,0,0,.592,2.189,2.675,2.675,0,0,0,2.045.949,2.9,2.9,0,0,0,.428-.033,2.748,2.748,0,0,0,2.23-2.738v-6.564h1.332a1.336,1.336,0,0,0,1.338-1.332,1.339,1.339,0,0,0-1.338-1.338h-1.332a1.336,1.336,0,0,0-1.332,1.338v5.7A2.651,2.651,0,0,0-17730.336,22480.67Z" transform="translate(17741 -22468)"/>
</svg>
