<svg id="icon-tune-circle-filled" xmlns="http://www.w3.org/2000/svg" width="24" height="24" viewBox="0 0 24 24">
  <g id="Gruppe_3655" data-name="Gruppe 3655">
    <rect id="Rechteck_716" data-name="Rechteck 716" width="24" height="24" fill="none"/>
  </g>
  <path id="Differenzmenge_32" data-name="Differenzmenge 32" d="M-18045,22490a10.015,10.015,0,0,1-10-10,10.013,10.013,0,0,1,10-10,10.01,10.01,0,0,1,10,10A10.011,10.011,0,0,1-18045,22490Zm0-8.336a.566.566,0,0,0-.559.559v2.225a.556.556,0,0,0,.559.553.553.553,0,0,0,.553-.553v-.559h3.891a.554.554,0,0,0,.553-.555.556.556,0,0,0-.553-.559h-3.891v-.553A.556.556,0,0,0-18045,22481.664Zm-4.447,1.111a.556.556,0,0,0-.553.559.554.554,0,0,0,.553.555h2.777v-1.113Zm0-3.33a.553.553,0,0,0-.553.553.554.554,0,0,0,.553.555h1.67v.559a.554.554,0,0,0,.555.553.553.553,0,0,0,.553-.553v-2.225a.553.553,0,0,0-.553-.553.554.554,0,0,0-.555.553v.559Zm3.889,0v1.109h5a.554.554,0,0,0,.553-.555.553.553,0,0,0-.553-.553h-5Zm2.777-4.445a.556.556,0,0,0-.553.559v2.219a.556.556,0,0,0,.553.559.558.558,0,0,0,.559-.559v-.553h1.666a.554.554,0,0,0,.553-.555.556.556,0,0,0-.553-.559h-1.666v-.553A.566.566,0,0,0-18042.779,22475Zm-6.666,1.111a.556.556,0,0,0-.553.559.554.554,0,0,0,.553.555h5v-1.113Z" transform="translate(18057 -22468)"/>
</svg>
