<svg id="icon-sm-instagram" xmlns="http://www.w3.org/2000/svg" width="24" height="24" viewBox="0 0 24 24">
  <g id="Gruppe_1780" data-name="Gruppe 1780" transform="translate(-16167 22913)">
    <path id="instagram-with-circle-svgrepo-com" d="M12,0A12,12,0,1,0,24,12,12,12,0,0,0,12,0Z" transform="translate(16167 -22913)"/>
    <path id="Differenzmenge_6" data-name="Differenzmenge 6" d="M6.25,12.5c-1.689,0-1.91-.007-2.577-.038a4.582,4.582,0,0,1-1.516-.291A3.2,3.2,0,0,1,.329,10.344,4.583,4.583,0,0,1,.038,8.827C.007,8.161,0,7.939,0,6.25s.007-1.91.038-2.577a4.558,4.558,0,0,1,.29-1.516A3.2,3.2,0,0,1,2.156.328,4.558,4.558,0,0,1,3.673.038C4.339.007,4.561,0,6.25,0S8.161.007,8.827.038a4.558,4.558,0,0,1,1.517.29,3.2,3.2,0,0,1,1.828,1.829,4.583,4.583,0,0,1,.291,1.516c.031.667.038.888.038,2.577s-.007,1.911-.038,2.578a4.591,4.591,0,0,1-.291,1.517,3.2,3.2,0,0,1-1.828,1.828,4.583,4.583,0,0,1-1.517.291C8.161,12.493,7.939,12.5,6.25,12.5Zm0-11.375c-1.653,0-1.853.007-2.524.038a3.446,3.446,0,0,0-1.161.215A2.072,2.072,0,0,0,1.378,2.565a3.443,3.443,0,0,0-.215,1.16c-.031.672-.038.871-.038,2.524s.007,1.854.038,2.525a3.446,3.446,0,0,0,.215,1.161,2.072,2.072,0,0,0,1.187,1.186,3.443,3.443,0,0,0,1.16.215c.656.03.853.037,2.524.037s1.873-.007,2.525-.038a3.445,3.445,0,0,0,1.161-.214,2.072,2.072,0,0,0,1.186-1.187,3.443,3.443,0,0,0,.215-1.16c.03-.656.037-.853.037-2.525s-.007-1.872-.038-2.524a3.445,3.445,0,0,0-.214-1.161A2.072,2.072,0,0,0,9.935,1.378a3.443,3.443,0,0,0-1.16-.215C8.1,1.132,7.9,1.125,6.25,1.125Zm0,8.335A3.21,3.21,0,1,1,9.46,6.25,3.188,3.188,0,0,1,6.25,9.46Zm0-5.21a2,2,0,1,0,2,2A2,2,0,0,0,6.25,4.25Zm3.336-.586a.75.75,0,1,1,.751-.75A.751.751,0,0,1,9.586,3.664Z" transform="translate(16173 -22907)" fill="#fff"/>
  </g>
</svg>
