<svg id="icon-blockquote" xmlns="http://www.w3.org/2000/svg" width="24" height="24" viewBox="0 0 24 24">
  <path id="Pfad_323" data-name="Pfad 323" d="M0,0H24V24H0Z" fill="none"/>
  <path id="Pfad_318" data-name="Pfad 318" d="M3.529,28.189l-2.15-1.7a10.121,10.121,0,0,0,1.941-2.7A7.123,7.123,0,0,0,3.9,20.824l1.364,1.06H1.116V16H6.938v4.08a11.515,11.515,0,0,1-.787,4.372A11.229,11.229,0,0,1,3.529,28.189Zm9.178,0-2.15-1.7a10.121,10.121,0,0,0,1.941-2.7,7.123,7.123,0,0,0,.577-2.967l1.364,1.06H10.294V16h5.822v4.08a11.515,11.515,0,0,1-.787,4.372A11.229,11.229,0,0,1,12.707,28.189Z" transform="translate(3.384 -10.502)"/>
</svg>
