<svg width="24" height="24" viewBox="0 0 24 24" fill="none" xmlns="http://www.w3.org/2000/svg">
<path d="M20.2874 15.02C18.2594 14.6893 17.3023 12.4969 17.2738 12.4402C17.2075 12.3174 17.2075 12.2513 17.2075 12.2513C17.2833 12.1473 17.7003 12.015 17.833 11.9678C17.9372 11.9394 18.032 11.9016 18.1173 11.8733C18.4869 11.7221 18.7712 11.552 18.9607 11.3535C19.1881 11.1173 19.3019 10.8338 19.3019 10.5503C19.3019 10.0778 18.9607 9.66203 18.4584 9.48249C18.1646 9.35964 17.8424 9.26515 17.3591 9.48249C17.2643 9.52029 17.1885 9.55809 17.1222 9.57699C17.198 8.38633 17.2738 6.95942 16.8568 6.0239C16.5725 5.38132 16.184 4.82379 15.7101 4.37021C15.3121 3.99222 14.8478 3.68038 14.3265 3.45359C13.4357 3.06615 12.6018 3 12.1848 3H11.8531C11.4361 3 10.6021 3.06615 9.71133 3.45359C9.19958 3.68038 8.73522 3.99222 8.32771 4.37021C7.85387 4.82379 7.46532 5.37187 7.18102 6.01445C6.77352 6.93107 6.83985 8.35798 6.91567 9.59589C6.8209 9.56754 6.71665 9.52974 6.5745 9.46359C6.21438 9.2935 5.72159 9.34074 5.33304 9.56754C5.02031 9.75653 4.81182 10.0306 4.74548 10.3519C4.70757 10.5314 4.67914 10.9755 5.13403 11.3913C5.32356 11.5614 5.58891 11.7126 5.91113 11.8449C5.98694 11.8733 6.08171 11.9111 6.19543 11.9394C6.33758 11.9867 6.75456 12.119 6.8209 12.204C6.8209 12.204 6.8209 12.2607 6.73561 12.4497C6.72613 12.478 6.47026 13.0545 5.94903 13.6593C5.66473 13.9994 5.35199 14.2735 5.01083 14.4908C4.6128 14.746 4.18635 14.9161 3.73146 14.9917C3.29553 15.0673 2.97331 15.4547 3.00174 15.9083C3.00174 16.0217 3.03965 16.1351 3.07756 16.239C3.21023 16.5414 3.47559 16.7871 3.89257 16.9761C4.25268 17.1462 4.75495 17.2879 5.3899 17.4013C5.3899 17.4297 5.39938 17.4486 5.40885 17.4769C5.43729 17.6092 5.46572 17.751 5.5131 17.8927C5.6363 18.318 5.97746 18.5636 6.42287 18.5636C6.55555 18.5636 6.70718 18.5353 6.90619 18.4975C7.21893 18.4408 7.74015 18.3652 8.27085 18.4503C8.58359 18.4975 8.88684 18.7148 9.26592 18.9889C9.90086 19.4425 10.6874 20 11.891 20H12.109C13.3125 20 14.1086 19.4425 14.7435 18.9889C15.1321 18.7148 15.4353 18.4975 15.7386 18.4503C16.2693 18.3652 16.7716 18.4219 17.1032 18.488C17.3023 18.5258 17.4634 18.5447 17.6055 18.5447C18.032 18.5447 18.3731 18.2896 18.4963 17.8738C18.5437 17.7226 18.5721 17.5809 18.6006 17.4391C18.6006 17.4202 18.6006 17.4108 18.61 17.3919C19.245 17.2785 19.7473 17.1367 20.1074 16.9666C20.5244 16.7777 20.7897 16.532 20.9224 16.2296C20.9698 16.1162 20.9982 16.0028 20.9982 15.8988C21.0266 15.4547 20.7139 15.0578 20.2685 14.9917L20.2874 15.02ZM12.1753 4.36076C12.7534 4.36076 14.6961 4.5214 15.6154 6.58143C15.9092 7.24291 15.8239 8.62257 15.7575 9.63369L15.7196 10.2196L15.7575 10.4653L15.8902 10.607C15.9565 10.6826 16.1935 10.9094 16.6768 10.9755C16.383 11.1362 16.1082 11.3724 15.9565 11.7221C15.8428 11.9961 15.767 12.4402 16.0513 13.0072C16.1556 13.2529 17.0179 15.1429 18.9038 15.9933C18.6859 16.05 18.4205 16.0973 18.0888 16.154C17.5107 16.239 17.3875 16.806 17.3023 17.184C16.8379 17.0989 16.2029 17.0422 15.5301 17.1556C14.9141 17.2596 14.4403 17.5903 13.9664 17.9305C13.4168 18.318 12.8955 18.6865 12.1184 18.6865H11.9099C11.1328 18.6865 10.6116 18.318 10.0525 17.9211C9.58813 17.5903 9.11429 17.2596 8.49829 17.1556C7.81596 17.0422 7.13363 17.1178 6.72613 17.1934C6.64084 16.8155 6.51764 16.2485 5.93956 16.154C5.60787 16.1067 5.33304 16.05 5.12455 15.9933C7.01044 15.1429 7.87283 13.2529 7.96759 13.0261C8.26137 12.4308 8.18556 11.9867 8.07184 11.7221C7.92021 11.3724 7.64538 11.1456 7.36108 10.985C7.83492 10.9283 8.08132 10.6826 8.18556 10.5598L8.30876 10.3424L8.27085 9.62424C8.20451 8.61312 8.11922 7.24291 8.413 6.58143C9.33225 4.5214 11.275 4.36076 11.8531 4.36076H12.1658" fill="#2A363C"/>
</svg>
