<svg xmlns="http://www.w3.org/2000/svg" width="24" height="24" viewBox="0 0 24 24">
  <g id="icon-ext-people-company" transform="translate(20938 9058)">
    <path id="Differenzmenge_4" data-name="Differenzmenge 4" d="M21571.779,8981.834v-1.665a1.673,1.673,0,0,0-1.668-1.668h-4.994a1.669,1.669,0,0,0-1.668,1.668v11.664a1.669,1.669,0,0,0,1.668,1.668h13.334a1.674,1.674,0,0,0,1.666-1.668V8983.5a1.674,1.674,0,0,0-1.666-1.666Zm-5,10h-1.662v-1.666h1.662Zm0-3.332h-1.662v-1.666h1.662Zm0-3.333h-1.662V8983.5h1.662Zm0-3.334h-1.662v-1.665h1.662Zm3.332,10h-1.666v-1.666h1.666Zm0-3.332h-1.666v-1.666h1.666Zm0-3.333h-1.666V8983.5h1.666Zm0-3.334h-1.666v-1.665h1.666Zm7.5,10h-5.832v-1.666h1.668V8988.5h-1.668v-1.666h1.668v-1.667h-1.668V8983.5h5.832a.839.839,0,0,1,.84.834V8991A.837.837,0,0,1,21577.611,8991.833Zm-.828-6.665h-1.668v1.667h1.668Zm0,3.333h-1.668v1.666h1.668Z" transform="translate(-42497.449 -18032.5)"/>
    <rect id="Rechteck_86" data-name="Rechteck 86" width="24" height="24" transform="translate(-20938 -9058)" fill="none"/>
  </g>
</svg>
