<svg width="24" height="25" viewBox="0 0 24 25" fill="none" xmlns="http://www.w3.org/2000/svg">
<path d="M23.402 10.957C21.7368 10.6424 20.1617 9.06942 20.4017 7.07699C20.4617 6.56764 20.0867 6.14818 19.5767 6.19312C16.6814 6.4478 14.2362 4.0359 14.4162 1.14462C14.4462 0.770102 14.2062 0.425545 13.8462 0.365623C5.53547 -0.967662 0 5.99837 0 12.2154C0 18.8369 5.37045 24.2 12.001 24.2C18.8416 24.2 24.302 18.4923 23.987 11.6611C23.972 11.3315 23.732 11.0169 23.402 10.957ZM7.1256 15.9606C6.09051 15.9606 5.25044 15.1216 5.25044 14.088C5.25044 13.0543 6.09051 12.2154 7.1256 12.2154C8.16069 12.2154 9.00076 13.0543 9.00076 14.088C9.00076 15.1216 8.16069 15.9606 7.1256 15.9606ZM10.1259 9.96827C9.09077 9.96827 8.2507 9.12935 8.2507 8.09568C8.2507 7.06201 9.09077 6.22309 10.1259 6.22309C11.1609 6.22309 12.001 7.06201 12.001 8.09568C12.001 9.12935 11.1609 9.96827 10.1259 9.96827ZM15.7513 17.0841C15.1363 17.0841 14.6262 16.5748 14.6262 15.9606C14.6262 15.3463 15.1363 14.837 15.7513 14.837C16.3664 14.837 16.8764 15.3463 16.8764 15.9606C16.8764 16.5748 16.3814 17.0841 15.7513 17.0841Z" fill="#303030"/>
</svg>
