<svg id="icon-sm-twitter" xmlns="http://www.w3.org/2000/svg" width="24" height="24" viewBox="0 0 24 24">
  <circle id="Ellipse_18" data-name="Ellipse 18" cx="12" cy="12" r="12"/>
  <g id="Gruppe_126" data-name="Gruppe 126" transform="translate(6.709 7.617)">
    <path id="Pfad_182" data-name="Pfad 182" d="M36.405,35.115a4.626,4.626,0,0,1-1.332.365,2.325,2.325,0,0,0,1.02-1.283,4.642,4.642,0,0,1-1.473.563,2.321,2.321,0,0,0-3.951,2.115,6.582,6.582,0,0,1-4.78-2.423,2.321,2.321,0,0,0,.717,3.1,2.3,2.3,0,0,1-1.05-.29c0,.01,0,.02,0,.029a2.32,2.32,0,0,0,1.86,2.274,2.328,2.328,0,0,1-1.047.04,2.321,2.321,0,0,0,2.166,1.61,4.681,4.681,0,0,1-3.433.96,6.594,6.594,0,0,0,10.152-5.556q0-.151-.007-.3a4.7,4.7,0,0,0,1.157-1.2Z" transform="translate(-25.103 -34.028)" fill="#fff"/>
  </g>
</svg>
