<svg id="icon-list" xmlns="http://www.w3.org/2000/svg" width="24" height="24" viewBox="0 0 24 24">
  <g id="Gruppe_3249" data-name="Gruppe 3249">
    <path id="Pfad_752" data-name="Pfad 752" d="M0,0H24V24H0Z" fill="none"/>
    <path id="Pfad_753" data-name="Pfad 753" d="M0,0H24V24H0Z" fill="none" opacity="0.87"/>
  </g>
  <path id="Pfad_754" data-name="Pfad 754" d="M4,13a1,1,0,1,0-1-1A1,1,0,0,0,4,13Zm0,4a1,1,0,1,0-1-1A1,1,0,0,0,4,17ZM4,9A1,1,0,1,0,3,8,1,1,0,0,0,4,9Zm4,4H20a1,1,0,0,0,0-2H8a1,1,0,0,0,0,2Zm0,4H20a1,1,0,0,0,0-2H8a1,1,0,0,0,0,2ZM7,8A1,1,0,0,0,8,9H20a1,1,0,0,0,0-2H8A1,1,0,0,0,7,8ZM4,13a1,1,0,1,0-1-1A1,1,0,0,0,4,13Zm0,4a1,1,0,1,0-1-1A1,1,0,0,0,4,17ZM4,9A1,1,0,1,0,3,8,1,1,0,0,0,4,9Zm4,4H20a1,1,0,0,0,0-2H8a1,1,0,0,0,0,2Zm0,4H20a1,1,0,0,0,0-2H8a1,1,0,0,0,0,2ZM7,8A1,1,0,0,0,8,9H20a1,1,0,0,0,0-2H8A1,1,0,0,0,7,8Z"/>
</svg>
