<svg width="24" height="24" viewBox="0 0 24 24" fill="none" xmlns="http://www.w3.org/2000/svg">
<circle cx="12" cy="12" r="12" fill="#2A363C"/>
<mask id="path-2-outside-1_2170_4409" maskUnits="userSpaceOnUse" x="3" y="3" width="18" height="17" fill="black">
<rect fill="white" x="3" y="3" width="18" height="17"/>
<path fill-rule="evenodd" clip-rule="evenodd" d="M12.1538 4C12.14 4 12.1263 4 12.114 4.00017C12.0155 4.00117 11.8535 4.00275 11.839 4.00292C11.4838 4.00292 10.7731 4.05331 10.0097 4.39176C9.57328 4.58515 9.18069 4.84663 8.84292 5.16896C8.44021 5.55302 8.11214 6.02655 7.868 6.57659C7.51045 7.38194 7.59532 8.73846 7.66349 9.82858L7.66374 9.83029C7.67104 9.94703 7.67871 10.0689 7.68572 10.1877C7.63327 10.2119 7.54822 10.2375 7.42287 10.2375C7.22119 10.2375 6.98136 10.1727 6.71022 10.0451C6.63044 10.0078 6.53938 9.98889 6.43891 9.98889C6.27749 9.98889 6.10732 10.0366 5.9597 10.1238C5.77398 10.2333 5.65398 10.3882 5.62139 10.5598C5.59991 10.6733 5.60095 10.8977 5.84912 11.1253C5.98562 11.2506 6.18614 11.3661 6.44497 11.4689C6.51289 11.4958 6.59349 11.5214 6.67887 11.5486C6.97514 11.6432 7.42354 11.7861 7.54047 12.0625C7.59972 12.2027 7.57422 12.3871 7.46488 12.61C7.46201 12.6161 7.45915 12.6221 7.45654 12.6283C7.42922 12.6924 7.17429 13.2725 6.65138 13.8842C6.35424 14.232 6.02696 14.5228 5.67915 14.7485C5.25464 15.0241 4.79529 15.2043 4.31401 15.2839C4.12501 15.3151 3.99004 15.4842 4.00058 15.6764C4.00381 15.7318 4.01675 15.7871 4.03918 15.8405L4.03972 15.8415C4.11614 16.021 4.29332 16.1735 4.58137 16.3081C4.93337 16.4723 5.4598 16.6105 6.14592 16.7185C6.18059 16.7848 6.21658 16.9512 6.2415 17.0652C6.26758 17.1863 6.29478 17.3108 6.33355 17.4431C6.37539 17.5864 6.4839 17.7577 6.76267 17.7577C6.86832 17.7577 6.98981 17.7338 7.1305 17.7064C7.33654 17.6658 7.6183 17.6104 7.96996 17.6104C8.16493 17.6104 8.36698 17.6276 8.57037 17.6615C8.96242 17.7271 9.3004 17.9669 9.69145 18.2447C10.2638 18.6511 10.9117 19.1111 11.9016 19.1111C11.9286 19.1111 11.9557 19.1102 11.9824 19.1084C12.0151 19.1099 12.0557 19.1111 12.0985 19.1111C13.0887 19.1111 13.7364 18.6509 14.3081 18.2448L14.3091 18.244C14.7002 17.9666 15.0378 17.7271 15.4297 17.6615C15.633 17.6276 15.835 17.6104 16.0301 17.6104C16.366 17.6104 16.632 17.6534 16.8695 17.6999C17.0245 17.7306 17.145 17.7453 17.2374 17.7453L17.2465 17.7455H17.2558C17.4597 17.7455 17.6095 17.6331 17.6667 17.4363C17.7047 17.3068 17.7318 17.1852 17.7586 17.0621C17.7819 16.9553 17.8191 16.7841 17.8538 16.7172C18.5403 16.6089 19.0666 16.471 19.4186 16.3068C19.706 16.1729 19.883 16.0206 19.9598 15.8418C19.9829 15.7881 19.9964 15.7326 19.9994 15.676C20.0102 15.4841 19.875 15.3147 19.6859 15.2835C17.547 14.9294 16.5834 12.7217 16.5435 12.628C16.5409 12.6218 16.538 12.6157 16.535 12.6097C16.4257 12.3867 16.4004 12.2025 16.4597 12.0621C16.5764 11.7859 17.0245 11.643 17.321 11.5485C17.4068 11.5213 17.4877 11.4955 17.5551 11.4687C17.847 11.3529 18.0556 11.2273 18.1932 11.0847C18.3576 10.9146 18.3896 10.7517 18.3876 10.6451C18.3826 10.3871 18.1862 10.1578 17.8739 10.0456C17.7684 10.0018 17.6481 9.97864 17.5256 9.97864C17.4423 9.97864 17.3188 9.99014 17.2019 10.045C16.9516 10.1626 16.7275 10.2269 16.5351 10.236C16.4327 10.2308 16.3609 10.2086 16.3145 10.1873C16.3203 10.0866 16.3268 9.98327 16.3334 9.87548L16.3362 9.82933C16.4048 8.7385 16.4899 7.38094 16.1322 6.575C15.887 6.02301 15.5578 5.54828 15.1535 5.16338C14.8144 4.84084 14.4205 4.5794 13.9824 4.38614C13.2201 4.05019 12.5095 4 12.1538 4ZM12.1538 4.37644C12.7532 4.37644 14.8172 4.53817 15.7898 6.72853C16.1101 7.44979 16.028 8.75633 15.9621 9.80588C15.9518 9.97244 15.9416 10.1339 15.9334 10.288L15.9299 10.3543L15.9739 10.4036C15.9917 10.4235 16.1582 10.5982 16.5285 10.6126L16.5344 10.6129L16.5406 10.6128C16.7855 10.6034 17.0612 10.5271 17.3607 10.3862C17.4048 10.3654 17.4635 10.3553 17.5256 10.3553C17.5964 10.3553 17.6716 10.3687 17.7336 10.3949L17.743 10.3986C17.9 10.4539 18.011 10.5581 18.0127 10.6524C18.0136 10.7057 17.974 10.8978 17.4173 11.1187C17.3629 11.1402 17.2913 11.1632 17.2083 11.1895C16.8461 11.305 16.2988 11.4794 16.1146 11.9153C16.0109 12.1609 16.0393 12.4507 16.199 12.7766C16.2647 12.9305 17.2986 15.27 19.6253 15.6551C19.6248 15.6662 19.622 15.6783 19.6158 15.6926C19.5763 15.7859 19.3257 16.1082 17.7659 16.3499C17.5219 16.3875 17.4621 16.6623 17.3927 16.9818C17.3677 17.0961 17.3422 17.2116 17.3072 17.3308C17.2966 17.3669 17.2946 17.3689 17.2561 17.3689C17.2508 17.3689 17.2446 17.3689 17.2378 17.3689C17.1686 17.3689 17.0636 17.3545 16.9419 17.3305C16.7203 17.2871 16.4175 17.234 16.0305 17.234C15.8144 17.234 15.5919 17.2528 15.3686 17.2903C14.8913 17.37 14.5032 17.6458 14.0921 17.9376C13.54 18.3295 12.9694 18.735 12.0988 18.735C12.0608 18.735 12.0237 18.7337 11.9865 18.7318L11.9767 18.7314L11.9669 18.7321C11.9455 18.734 11.924 18.735 11.902 18.735C11.0316 18.735 10.4607 18.3296 9.90889 17.9376C9.49773 17.6458 9.10937 17.37 8.63215 17.2903C8.40907 17.253 8.18632 17.234 7.97041 17.234C7.58342 17.234 7.28028 17.2934 7.0591 17.3369C6.9374 17.3608 6.83204 17.3813 6.76308 17.3813C6.70661 17.3813 6.70553 17.3779 6.69359 17.337C6.65859 17.2176 6.63301 17.0994 6.60809 16.9852C6.53859 16.6654 6.47876 16.3891 6.23482 16.3515C4.67521 16.1096 4.42451 15.7867 4.38495 15.6936C4.37878 15.679 4.376 15.6665 4.37538 15.6554C6.70197 15.2706 7.73572 12.9311 7.80161 12.7766C7.96154 12.4509 7.9899 12.1612 7.88587 11.9153C7.70168 11.4796 7.15451 11.305 6.79252 11.1897C6.7093 11.1632 6.63765 11.1402 6.58321 11.1187C6.11317 10.9321 5.96858 10.7442 5.99006 10.6303C6.01498 10.499 6.24162 10.3655 6.43941 10.3655C6.48386 10.3655 6.52284 10.3727 6.55166 10.3862C6.87288 10.5374 7.16612 10.6141 7.42333 10.6141C7.82765 10.6141 8.00761 10.4251 8.02693 10.4036L8.07076 10.3543L8.06723 10.2884C8.05907 10.1343 8.04899 9.97294 8.03838 9.80671C7.97274 8.75691 7.89064 7.45125 8.21079 6.72994C9.17982 4.54762 11.2337 4.37939 11.84 4.37939C11.8549 4.37939 12.1185 4.37669 12.1185 4.37669C12.1293 4.3766 12.1413 4.37644 12.1538 4.37644Z"/>
</mask>
<path fill-rule="evenodd" clip-rule="evenodd" d="M12.1538 4C12.14 4 12.1263 4 12.114 4.00017C12.0155 4.00117 11.8535 4.00275 11.839 4.00292C11.4838 4.00292 10.7731 4.05331 10.0097 4.39176C9.57328 4.58515 9.18069 4.84663 8.84292 5.16896C8.44021 5.55302 8.11214 6.02655 7.868 6.57659C7.51045 7.38194 7.59532 8.73846 7.66349 9.82858L7.66374 9.83029C7.67104 9.94703 7.67871 10.0689 7.68572 10.1877C7.63327 10.2119 7.54822 10.2375 7.42287 10.2375C7.22119 10.2375 6.98136 10.1727 6.71022 10.0451C6.63044 10.0078 6.53938 9.98889 6.43891 9.98889C6.27749 9.98889 6.10732 10.0366 5.9597 10.1238C5.77398 10.2333 5.65398 10.3882 5.62139 10.5598C5.59991 10.6733 5.60095 10.8977 5.84912 11.1253C5.98562 11.2506 6.18614 11.3661 6.44497 11.4689C6.51289 11.4958 6.59349 11.5214 6.67887 11.5486C6.97514 11.6432 7.42354 11.7861 7.54047 12.0625C7.59972 12.2027 7.57422 12.3871 7.46488 12.61C7.46201 12.6161 7.45915 12.6221 7.45654 12.6283C7.42922 12.6924 7.17429 13.2725 6.65138 13.8842C6.35424 14.232 6.02696 14.5228 5.67915 14.7485C5.25464 15.0241 4.79529 15.2043 4.31401 15.2839C4.12501 15.3151 3.99004 15.4842 4.00058 15.6764C4.00381 15.7318 4.01675 15.7871 4.03918 15.8405L4.03972 15.8415C4.11614 16.021 4.29332 16.1735 4.58137 16.3081C4.93337 16.4723 5.4598 16.6105 6.14592 16.7185C6.18059 16.7848 6.21658 16.9512 6.2415 17.0652C6.26758 17.1863 6.29478 17.3108 6.33355 17.4431C6.37539 17.5864 6.4839 17.7577 6.76267 17.7577C6.86832 17.7577 6.98981 17.7338 7.1305 17.7064C7.33654 17.6658 7.6183 17.6104 7.96996 17.6104C8.16493 17.6104 8.36698 17.6276 8.57037 17.6615C8.96242 17.7271 9.3004 17.9669 9.69145 18.2447C10.2638 18.6511 10.9117 19.1111 11.9016 19.1111C11.9286 19.1111 11.9557 19.1102 11.9824 19.1084C12.0151 19.1099 12.0557 19.1111 12.0985 19.1111C13.0887 19.1111 13.7364 18.6509 14.3081 18.2448L14.3091 18.244C14.7002 17.9666 15.0378 17.7271 15.4297 17.6615C15.633 17.6276 15.835 17.6104 16.0301 17.6104C16.366 17.6104 16.632 17.6534 16.8695 17.6999C17.0245 17.7306 17.145 17.7453 17.2374 17.7453L17.2465 17.7455H17.2558C17.4597 17.7455 17.6095 17.6331 17.6667 17.4363C17.7047 17.3068 17.7318 17.1852 17.7586 17.0621C17.7819 16.9553 17.8191 16.7841 17.8538 16.7172C18.5403 16.6089 19.0666 16.471 19.4186 16.3068C19.706 16.1729 19.883 16.0206 19.9598 15.8418C19.9829 15.7881 19.9964 15.7326 19.9994 15.676C20.0102 15.4841 19.875 15.3147 19.6859 15.2835C17.547 14.9294 16.5834 12.7217 16.5435 12.628C16.5409 12.6218 16.538 12.6157 16.535 12.6097C16.4257 12.3867 16.4004 12.2025 16.4597 12.0621C16.5764 11.7859 17.0245 11.643 17.321 11.5485C17.4068 11.5213 17.4877 11.4955 17.5551 11.4687C17.847 11.3529 18.0556 11.2273 18.1932 11.0847C18.3576 10.9146 18.3896 10.7517 18.3876 10.6451C18.3826 10.3871 18.1862 10.1578 17.8739 10.0456C17.7684 10.0018 17.6481 9.97864 17.5256 9.97864C17.4423 9.97864 17.3188 9.99014 17.2019 10.045C16.9516 10.1626 16.7275 10.2269 16.5351 10.236C16.4327 10.2308 16.3609 10.2086 16.3145 10.1873C16.3203 10.0866 16.3268 9.98327 16.3334 9.87548L16.3362 9.82933C16.4048 8.7385 16.4899 7.38094 16.1322 6.575C15.887 6.02301 15.5578 5.54828 15.1535 5.16338C14.8144 4.84084 14.4205 4.5794 13.9824 4.38614C13.2201 4.05019 12.5095 4 12.1538 4ZM12.1538 4.37644C12.7532 4.37644 14.8172 4.53817 15.7898 6.72853C16.1101 7.44979 16.028 8.75633 15.9621 9.80588C15.9518 9.97244 15.9416 10.1339 15.9334 10.288L15.9299 10.3543L15.9739 10.4036C15.9917 10.4235 16.1582 10.5982 16.5285 10.6126L16.5344 10.6129L16.5406 10.6128C16.7855 10.6034 17.0612 10.5271 17.3607 10.3862C17.4048 10.3654 17.4635 10.3553 17.5256 10.3553C17.5964 10.3553 17.6716 10.3687 17.7336 10.3949L17.743 10.3986C17.9 10.4539 18.011 10.5581 18.0127 10.6524C18.0136 10.7057 17.974 10.8978 17.4173 11.1187C17.3629 11.1402 17.2913 11.1632 17.2083 11.1895C16.8461 11.305 16.2988 11.4794 16.1146 11.9153C16.0109 12.1609 16.0393 12.4507 16.199 12.7766C16.2647 12.9305 17.2986 15.27 19.6253 15.6551C19.6248 15.6662 19.622 15.6783 19.6158 15.6926C19.5763 15.7859 19.3257 16.1082 17.7659 16.3499C17.5219 16.3875 17.4621 16.6623 17.3927 16.9818C17.3677 17.0961 17.3422 17.2116 17.3072 17.3308C17.2966 17.3669 17.2946 17.3689 17.2561 17.3689C17.2508 17.3689 17.2446 17.3689 17.2378 17.3689C17.1686 17.3689 17.0636 17.3545 16.9419 17.3305C16.7203 17.2871 16.4175 17.234 16.0305 17.234C15.8144 17.234 15.5919 17.2528 15.3686 17.2903C14.8913 17.37 14.5032 17.6458 14.0921 17.9376C13.54 18.3295 12.9694 18.735 12.0988 18.735C12.0608 18.735 12.0237 18.7337 11.9865 18.7318L11.9767 18.7314L11.9669 18.7321C11.9455 18.734 11.924 18.735 11.902 18.735C11.0316 18.735 10.4607 18.3296 9.90889 17.9376C9.49773 17.6458 9.10937 17.37 8.63215 17.2903C8.40907 17.253 8.18632 17.234 7.97041 17.234C7.58342 17.234 7.28028 17.2934 7.0591 17.3369C6.9374 17.3608 6.83204 17.3813 6.76308 17.3813C6.70661 17.3813 6.70553 17.3779 6.69359 17.337C6.65859 17.2176 6.63301 17.0994 6.60809 16.9852C6.53859 16.6654 6.47876 16.3891 6.23482 16.3515C4.67521 16.1096 4.42451 15.7867 4.38495 15.6936C4.37878 15.679 4.376 15.6665 4.37538 15.6554C6.70197 15.2706 7.73572 12.9311 7.80161 12.7766C7.96154 12.4509 7.9899 12.1612 7.88587 11.9153C7.70168 11.4796 7.15451 11.305 6.79252 11.1897C6.7093 11.1632 6.63765 11.1402 6.58321 11.1187C6.11317 10.9321 5.96858 10.7442 5.99006 10.6303C6.01498 10.499 6.24162 10.3655 6.43941 10.3655C6.48386 10.3655 6.52284 10.3727 6.55166 10.3862C6.87288 10.5374 7.16612 10.6141 7.42333 10.6141C7.82765 10.6141 8.00761 10.4251 8.02693 10.4036L8.07076 10.3543L8.06723 10.2884C8.05907 10.1343 8.04899 9.97294 8.03838 9.80671C7.97274 8.75691 7.89064 7.45125 8.21079 6.72994C9.17982 4.54762 11.2337 4.37939 11.84 4.37939C11.8549 4.37939 12.1185 4.37669 12.1185 4.37669C12.1293 4.3766 12.1413 4.37644 12.1538 4.37644Z" fill="white"/>
<path fill-rule="evenodd" clip-rule="evenodd" d="M12.1538 4C12.14 4 12.1263 4 12.114 4.00017C12.0155 4.00117 11.8535 4.00275 11.839 4.00292C11.4838 4.00292 10.7731 4.05331 10.0097 4.39176C9.57328 4.58515 9.18069 4.84663 8.84292 5.16896C8.44021 5.55302 8.11214 6.02655 7.868 6.57659C7.51045 7.38194 7.59532 8.73846 7.66349 9.82858L7.66374 9.83029C7.67104 9.94703 7.67871 10.0689 7.68572 10.1877C7.63327 10.2119 7.54822 10.2375 7.42287 10.2375C7.22119 10.2375 6.98136 10.1727 6.71022 10.0451C6.63044 10.0078 6.53938 9.98889 6.43891 9.98889C6.27749 9.98889 6.10732 10.0366 5.9597 10.1238C5.77398 10.2333 5.65398 10.3882 5.62139 10.5598C5.59991 10.6733 5.60095 10.8977 5.84912 11.1253C5.98562 11.2506 6.18614 11.3661 6.44497 11.4689C6.51289 11.4958 6.59349 11.5214 6.67887 11.5486C6.97514 11.6432 7.42354 11.7861 7.54047 12.0625C7.59972 12.2027 7.57422 12.3871 7.46488 12.61C7.46201 12.6161 7.45915 12.6221 7.45654 12.6283C7.42922 12.6924 7.17429 13.2725 6.65138 13.8842C6.35424 14.232 6.02696 14.5228 5.67915 14.7485C5.25464 15.0241 4.79529 15.2043 4.31401 15.2839C4.12501 15.3151 3.99004 15.4842 4.00058 15.6764C4.00381 15.7318 4.01675 15.7871 4.03918 15.8405L4.03972 15.8415C4.11614 16.021 4.29332 16.1735 4.58137 16.3081C4.93337 16.4723 5.4598 16.6105 6.14592 16.7185C6.18059 16.7848 6.21658 16.9512 6.2415 17.0652C6.26758 17.1863 6.29478 17.3108 6.33355 17.4431C6.37539 17.5864 6.4839 17.7577 6.76267 17.7577C6.86832 17.7577 6.98981 17.7338 7.1305 17.7064C7.33654 17.6658 7.6183 17.6104 7.96996 17.6104C8.16493 17.6104 8.36698 17.6276 8.57037 17.6615C8.96242 17.7271 9.3004 17.9669 9.69145 18.2447C10.2638 18.6511 10.9117 19.1111 11.9016 19.1111C11.9286 19.1111 11.9557 19.1102 11.9824 19.1084C12.0151 19.1099 12.0557 19.1111 12.0985 19.1111C13.0887 19.1111 13.7364 18.6509 14.3081 18.2448L14.3091 18.244C14.7002 17.9666 15.0378 17.7271 15.4297 17.6615C15.633 17.6276 15.835 17.6104 16.0301 17.6104C16.366 17.6104 16.632 17.6534 16.8695 17.6999C17.0245 17.7306 17.145 17.7453 17.2374 17.7453L17.2465 17.7455H17.2558C17.4597 17.7455 17.6095 17.6331 17.6667 17.4363C17.7047 17.3068 17.7318 17.1852 17.7586 17.0621C17.7819 16.9553 17.8191 16.7841 17.8538 16.7172C18.5403 16.6089 19.0666 16.471 19.4186 16.3068C19.706 16.1729 19.883 16.0206 19.9598 15.8418C19.9829 15.7881 19.9964 15.7326 19.9994 15.676C20.0102 15.4841 19.875 15.3147 19.6859 15.2835C17.547 14.9294 16.5834 12.7217 16.5435 12.628C16.5409 12.6218 16.538 12.6157 16.535 12.6097C16.4257 12.3867 16.4004 12.2025 16.4597 12.0621C16.5764 11.7859 17.0245 11.643 17.321 11.5485C17.4068 11.5213 17.4877 11.4955 17.5551 11.4687C17.847 11.3529 18.0556 11.2273 18.1932 11.0847C18.3576 10.9146 18.3896 10.7517 18.3876 10.6451C18.3826 10.3871 18.1862 10.1578 17.8739 10.0456C17.7684 10.0018 17.6481 9.97864 17.5256 9.97864C17.4423 9.97864 17.3188 9.99014 17.2019 10.045C16.9516 10.1626 16.7275 10.2269 16.5351 10.236C16.4327 10.2308 16.3609 10.2086 16.3145 10.1873C16.3203 10.0866 16.3268 9.98327 16.3334 9.87548L16.3362 9.82933C16.4048 8.7385 16.4899 7.38094 16.1322 6.575C15.887 6.02301 15.5578 5.54828 15.1535 5.16338C14.8144 4.84084 14.4205 4.5794 13.9824 4.38614C13.2201 4.05019 12.5095 4 12.1538 4ZM12.1538 4.37644C12.7532 4.37644 14.8172 4.53817 15.7898 6.72853C16.1101 7.44979 16.028 8.75633 15.9621 9.80588C15.9518 9.97244 15.9416 10.1339 15.9334 10.288L15.9299 10.3543L15.9739 10.4036C15.9917 10.4235 16.1582 10.5982 16.5285 10.6126L16.5344 10.6129L16.5406 10.6128C16.7855 10.6034 17.0612 10.5271 17.3607 10.3862C17.4048 10.3654 17.4635 10.3553 17.5256 10.3553C17.5964 10.3553 17.6716 10.3687 17.7336 10.3949L17.743 10.3986C17.9 10.4539 18.011 10.5581 18.0127 10.6524C18.0136 10.7057 17.974 10.8978 17.4173 11.1187C17.3629 11.1402 17.2913 11.1632 17.2083 11.1895C16.8461 11.305 16.2988 11.4794 16.1146 11.9153C16.0109 12.1609 16.0393 12.4507 16.199 12.7766C16.2647 12.9305 17.2986 15.27 19.6253 15.6551C19.6248 15.6662 19.622 15.6783 19.6158 15.6926C19.5763 15.7859 19.3257 16.1082 17.7659 16.3499C17.5219 16.3875 17.4621 16.6623 17.3927 16.9818C17.3677 17.0961 17.3422 17.2116 17.3072 17.3308C17.2966 17.3669 17.2946 17.3689 17.2561 17.3689C17.2508 17.3689 17.2446 17.3689 17.2378 17.3689C17.1686 17.3689 17.0636 17.3545 16.9419 17.3305C16.7203 17.2871 16.4175 17.234 16.0305 17.234C15.8144 17.234 15.5919 17.2528 15.3686 17.2903C14.8913 17.37 14.5032 17.6458 14.0921 17.9376C13.54 18.3295 12.9694 18.735 12.0988 18.735C12.0608 18.735 12.0237 18.7337 11.9865 18.7318L11.9767 18.7314L11.9669 18.7321C11.9455 18.734 11.924 18.735 11.902 18.735C11.0316 18.735 10.4607 18.3296 9.90889 17.9376C9.49773 17.6458 9.10937 17.37 8.63215 17.2903C8.40907 17.253 8.18632 17.234 7.97041 17.234C7.58342 17.234 7.28028 17.2934 7.0591 17.3369C6.9374 17.3608 6.83204 17.3813 6.76308 17.3813C6.70661 17.3813 6.70553 17.3779 6.69359 17.337C6.65859 17.2176 6.63301 17.0994 6.60809 16.9852C6.53859 16.6654 6.47876 16.3891 6.23482 16.3515C4.67521 16.1096 4.42451 15.7867 4.38495 15.6936C4.37878 15.679 4.376 15.6665 4.37538 15.6554C6.70197 15.2706 7.73572 12.9311 7.80161 12.7766C7.96154 12.4509 7.9899 12.1612 7.88587 11.9153C7.70168 11.4796 7.15451 11.305 6.79252 11.1897C6.7093 11.1632 6.63765 11.1402 6.58321 11.1187C6.11317 10.9321 5.96858 10.7442 5.99006 10.6303C6.01498 10.499 6.24162 10.3655 6.43941 10.3655C6.48386 10.3655 6.52284 10.3727 6.55166 10.3862C6.87288 10.5374 7.16612 10.6141 7.42333 10.6141C7.82765 10.6141 8.00761 10.4251 8.02693 10.4036L8.07076 10.3543L8.06723 10.2884C8.05907 10.1343 8.04899 9.97294 8.03838 9.80671C7.97274 8.75691 7.89064 7.45125 8.21079 6.72994C9.17982 4.54762 11.2337 4.37939 11.84 4.37939C11.8549 4.37939 12.1185 4.37669 12.1185 4.37669C12.1293 4.3766 12.1413 4.37644 12.1538 4.37644Z" stroke="white" stroke-width="0.5" mask="url(#path-2-outside-1_2170_4409)"/>
</svg>
