<svg id="icon-new" xmlns="http://www.w3.org/2000/svg" width="24" height="24" viewBox="0 0 24 24">
  <path id="Pfad_775" data-name="Pfad 775" d="M0,0H24V24H0Z" fill="none"/>
  <path id="fiber_new_black_24dp" d="M20,4H4A1.985,1.985,0,0,0,2.01,6L2,18a1.993,1.993,0,0,0,2,2H20a1.993,1.993,0,0,0,2-2V6A1.993,1.993,0,0,0,20,4ZM8.5,14.21a.8.8,0,0,1-.79.79.787.787,0,0,1-.64-.33L4.75,11.5v2.88a.617.617,0,0,1-.62.62.632.632,0,0,1-.63-.62V9.79A.8.8,0,0,1,4.29,9h.05a.792.792,0,0,1,.65.33L7.25,12.5V9.62A.625.625,0,0,1,7.88,9a.617.617,0,0,1,.62.62Zm5-4.57a.617.617,0,0,1-.62.62H11v1.12h1.88a.617.617,0,0,1,.62.62v.01a.617.617,0,0,1-.62.62H11v1.11h1.88a.62.62,0,0,1,0,1.24H10.35a.849.849,0,0,1-.85-.85V9.83A.845.845,0,0,1,10.35,9h2.53a.617.617,0,0,1,.62.62v.02Zm7,4.36a1,1,0,0,1-1,1h-4a1,1,0,0,1-1-1V9.62a.62.62,0,0,1,1.24,0v3.89h1.13v-2.9a.617.617,0,0,1,.62-.62.623.623,0,0,1,.62.62V13.5h1.12V9.62A.617.617,0,0,1,19.85,9a.623.623,0,0,1,.62.62V14Z"/>
</svg>
